<?xml version="1.0" encoding="UTF-8" standalone="no"?>
<!-- Created with Inkscape (http://www.inkscape.org/) -->

<svg
   xmlns:dc="http://purl.org/dc/elements/1.1/"
   xmlns:cc="http://creativecommons.org/ns#"
   xmlns:rdf="http://www.w3.org/1999/02/22-rdf-syntax-ns#"
   xmlns:svg="http://www.w3.org/2000/svg"
   xmlns="http://www.w3.org/2000/svg"
   xmlns:sodipodi="http://sodipodi.sourceforge.net/DTD/sodipodi-0.dtd"
   xmlns:inkscape="http://www.inkscape.org/namespaces/inkscape"
   width="210mm"
   height="297mm"
   viewBox="0 0 210 297"
   version="1.1"
   id="svg8"
   inkscape:version="0.92.4 (5da689c313, 2019-01-14)"
   sodipodi:docname="symbols.svg">
  <defs
     id="defs2" />
  <sodipodi:namedview
     id="base"
     pagecolor="#ffffff"
     bordercolor="#666666"
     borderopacity="1.0"
     inkscape:pageopacity="0.0"
     inkscape:pageshadow="2"
     inkscape:zoom="0.98994949"
     inkscape:cx="452.2597"
     inkscape:cy="617.96046"
     inkscape:document-units="mm"
     inkscape:current-layer="layer1"
     showgrid="false"
     inkscape:snap-global="false"
     inkscape:window-width="1780"
     inkscape:window-height="1051"
     inkscape:window-x="-9"
     inkscape:window-y="-9"
     inkscape:window-maximized="1" />
  <metadata
     id="metadata5">
    <rdf:RDF>
      <cc:Work
         rdf:about="">
        <dc:format>image/svg+xml</dc:format>
        <dc:type
           rdf:resource="http://purl.org/dc/dcmitype/StillImage" />
        <dc:title></dc:title>
      </cc:Work>
    </rdf:RDF>
  </metadata>
  <g
     inkscape:label="Layer 1"
     inkscape:groupmode="layer"
     id="layer1">
    <path
       style="fill:#515cdf;fill-opacity:1;stroke:#000000;stroke-width:0.26458332px;stroke-linecap:butt;stroke-linejoin:miter;stroke-opacity:1"
       d="m 190.3178,61.373736 c -3.05606,0.02975 -6.61545,0.672021 -9.67899,1.09709 l 0.1819,0.07441 c -3.82363,1.162542 -4.18236,4.194326 -5.87871,6.504514 1.22107,-2.124811 1.12045,-4.677495 3.76669,-6.341216 -0.33322,0.03451 -0.65982,0.06558 -0.971,0.08733 -9.25304,0.646877 -19.74386,0.835692 -28.57707,3.867981 -2.9881,5.294913 -0.45203,9.540057 -0.22169,14.22342 -0.72149,-4.444648 -3.97085,-7.909605 -1.48828,-13.595554 -3.62344,1.439524 -6.91952,3.42142 -9.67021,6.194973 -1.31777,1.328724 -2.49953,2.861273 -3.52743,4.529955 -1.1622,5.53756 2.33553,8.270899 3.97753,12.120708 -1.8131,-3.204186 -5.19871,-5.01931 -5.29011,-9.744625 -3.06328,6.209157 -4.09835,13.746363 -2.10892,19.954338 0.65619,2.04761 2.8006,3.98416 4.94492,4.1429 7.50602,0.55564 14.08398,-4.725196 19.97656,-10.294463 -6.07864,0.810559 -7.91922,-3.169626 -11.49026,-5.193483 3.93804,1.682764 6.7042,5.310392 12.50673,3.900022 l -0.88831,1.170988 c 1.87253,-1.774066 3.67776,-3.572923 5.4193,-5.218287 3.58721,-3.389112 7.21176,-7.085026 11.48457,-10.57248 -5.1954,0.09319 -7.48366,-3.542279 -11.1957,-5.351613 4.22892,1.504272 7.44968,4.943631 12.99042,3.930509 2.22562,-1.705618 4.63191,-3.342552 7.30033,-4.844663 1.83551,-1.033249 5.09888,-1.54414 8.16436,-2.169377 -2.81821,-0.658101 -3.8292,-2.950978 -5.79861,-4.376994 2.63976,1.493697 4.30162,4.263998 8.49664,3.726905 l -0.0372,0.03927 c 2.90113,-0.779071 5.06537,-1.886876 4.67672,-4.034896 -0.55058,-3.042941 -3.45541,-3.862808 -7.06417,-3.827672 z"
       id="path835"
       inkscape:connector-curvature="0" />
    <path
       sodipodi:nodetypes="ccccc"
       inkscape:connector-curvature="0"
       id="path833"
       d="m 121.05601,114.30454 5.66964,7.18155 c 11.84549,-38.601038 36.52213,-53.891217 69.26414,-57.074408 l -0.0945,-0.755953 c -29.68344,1.850377 -58.94305,18.191108 -74.83928,50.648811 z"
       style="fill:#565656;fill-opacity:1;stroke:#000000;stroke-width:0.26458332px;stroke-linecap:butt;stroke-linejoin:miter;stroke-opacity:1" />
    <path
       style="fill:#565656;fill-opacity:1;stroke:none;stroke-width:0.26499999;stroke-linecap:butt;stroke-linejoin:miter;stroke-miterlimit:4;stroke-dasharray:none;stroke-opacity:1"
       d="m 120.90471,65.967951 1.6064,0.18899 c -5.03888,3.20439 -4.34157,7.712458 -5.85864,11.71726 1.01902,-3.98535 -0.58396,-8.07995 4.25224,-11.90625 z"
       id="path855"
       inkscape:connector-curvature="0"
       sodipodi:nodetypes="cccc" />
    <path
       style="fill:#565656;fill-opacity:1;stroke:none;stroke-width:0.26499999;stroke-linecap:butt;stroke-linejoin:miter;stroke-miterlimit:4;stroke-dasharray:none;stroke-opacity:1"
       d="m 119.44236,82.762497 1.28945,-0.976499 c -1.41426,5.801576 2.21151,8.569744 3.89163,12.508918 -2.02584,-3.580132 -6.01835,-5.422724 -5.18108,-11.532419 z"
       id="path859"
       inkscape:connector-curvature="0"
       sodipodi:nodetypes="cccc" />
    <path
       sodipodi:nodetypes="cccc"
       inkscape:connector-curvature="0"
       id="path868"
       d="m 179.56023,96.860066 0.89553,-1.34694 c -5.70386,1.76759 -8.68929,-1.68149 -12.72414,-3.116728 3.69769,1.802338 5.7818,5.674258 11.82861,4.463668 z"
       style="fill:#565656;fill-opacity:1;stroke:none;stroke-width:0.26499999;stroke-linecap:butt;stroke-linejoin:miter;stroke-miterlimit:4;stroke-dasharray:none;stroke-opacity:1" />
    <path
       style="fill:#565656;fill-opacity:1;stroke:none;stroke-width:0.1773531;stroke-linecap:butt;stroke-linejoin:miter;stroke-miterlimit:4;stroke-dasharray:none;stroke-opacity:1"
       d="m 174.40673,53.849818 1.0019,0.409928 c -3.82363,1.162542 -4.18241,4.194319 -5.87876,6.504507 1.37172,-2.386956 1.07241,-5.314548 4.87686,-6.914435 z"
       id="path876"
       inkscape:connector-curvature="0"
       sodipodi:nodetypes="cccc" />
    <path
       style="fill:#565656;fill-opacity:1;stroke:none;stroke-width:0.18768471;stroke-linecap:butt;stroke-linejoin:miter;stroke-miterlimit:4;stroke-dasharray:none;stroke-opacity:1"
       d="m 197.69953,75.038857 0.78916,-0.830415 c -4.19502,0.537094 -5.8569,-2.233489 -8.49666,-3.727188 2.35975,1.708661 3.34122,4.664249 7.7075,4.557603 z"
       id="path882"
       inkscape:connector-curvature="0"
       sodipodi:nodetypes="cccc" />
  </g>
  <g
     inkscape:groupmode="layer"
     id="layer3"
     inkscape:label="leaf lines"
     style="display:none">
    <path
       sodipodi:nodetypes="cc"
       inkscape:connector-curvature="0"
       id="path887"
       d="m 179.45173,72.742417 c 3.39074,1.822842 2.27784,1.431762 6.68147,1.79109"
       style="fill:none;stroke:#000000;stroke-width:0.26458332px;stroke-linecap:butt;stroke-linejoin:miter;stroke-opacity:1" />
    <path
       sodipodi:nodetypes="cc"
       inkscape:connector-curvature="0"
       id="path891"
       d="m 168.84913,73.626448 c 2.81564,-2.625273 3.05736,-3.044444 7.2248,-4.511936"
       style="fill:none;stroke:#000000;stroke-width:0.26458332px;stroke-linecap:butt;stroke-linejoin:miter;stroke-opacity:1" />
    <path
       style="fill:none;stroke:#000000;stroke-width:0.26458332px;stroke-linecap:butt;stroke-linejoin:miter;stroke-opacity:1"
       d="m 174.47153,72.445272 c 2.81564,-2.625273 3.24258,-2.177785 6.37435,-3.378007"
       id="path893"
       inkscape:connector-curvature="0"
       sodipodi:nodetypes="cc" />
    <path
       sodipodi:nodetypes="cc"
       inkscape:connector-curvature="0"
       id="path895"
       d="m 176.51955,73.217261 c 3.39074,1.822842 3.73112,2.166753 8.13475,2.526081"
       style="fill:none;stroke:#000000;stroke-width:0.26458332px;stroke-linecap:butt;stroke-linejoin:miter;stroke-opacity:1" />
    <path
       style="fill:none;stroke:#000000;stroke-width:0.26458332px;stroke-linecap:butt;stroke-linejoin:miter;stroke-opacity:1"
       d="m 158.14477,79.765364 c 3.39074,1.822842 3.73112,2.166753 8.13475,2.526081"
       id="path897"
       inkscape:connector-curvature="0"
       sodipodi:nodetypes="cc" />
    <path
       sodipodi:nodetypes="cc"
       inkscape:connector-curvature="0"
       id="path899"
       d="m 161.08473,78.028112 c 3.39074,1.822842 3.73112,2.166753 8.13475,2.526081"
       style="fill:none;stroke:#000000;stroke-width:0.26458332px;stroke-linecap:butt;stroke-linejoin:miter;stroke-opacity:1" />
    <path
       style="fill:none;stroke:#000000;stroke-width:0.26458332px;stroke-linecap:butt;stroke-linejoin:miter;stroke-opacity:1"
       d="m 164.4256,76.424495 c 3.39074,1.822842 3.73112,2.166753 8.13475,2.526081"
       id="path901"
       inkscape:connector-curvature="0"
       sodipodi:nodetypes="cc" />
    <path
       style="fill:none;stroke:#000000;stroke-width:0.16918778px;stroke-linecap:butt;stroke-linejoin:miter;stroke-opacity:1"
       d="m 141.12825,73.196036 c -0.84631,3.259059 -0.24046,4.801896 0.4183,8.532126"
       id="path903"
       inkscape:connector-curvature="0"
       sodipodi:nodetypes="cc" />
    <path
       sodipodi:nodetypes="cc"
       inkscape:connector-curvature="0"
       id="path905"
       d="m 145.00341,72.511315 c -1.38482,3.069197 -0.83665,4.474801 -0.34215,7.350432"
       style="fill:none;stroke:#000000;stroke-width:0.16918778px;stroke-linecap:butt;stroke-linejoin:miter;stroke-opacity:1" />
    <path
       style="fill:none;stroke:#000000;stroke-width:0.16918778px;stroke-linecap:butt;stroke-linejoin:miter;stroke-opacity:1"
       d="m 149.02243,71.787746 c -1.34916,3.085036 -1.59417,3.702607 -0.67876,7.191173"
       id="path907"
       inkscape:connector-curvature="0"
       sodipodi:nodetypes="cc" />
    <path
       style="fill:none;stroke:#000000;stroke-width:0.26458332px;stroke-linecap:butt;stroke-linejoin:miter;stroke-opacity:1"
       d="m 176.51955,73.217261 c 3.39074,1.822842 3.73112,2.166753 8.13475,2.526081"
       id="path885"
       inkscape:connector-curvature="0"
       sodipodi:nodetypes="cc" />
    <path
       sodipodi:nodetypes="cc"
       inkscape:connector-curvature="0"
       id="path831"
       d="m 176.51955,73.217261 c 3.39074,1.822842 3.73112,2.166753 8.13475,2.526081"
       style="fill:none;stroke:#000000;stroke-width:0.26458332px;stroke-linecap:butt;stroke-linejoin:miter;stroke-opacity:1" />
  </g>
  <g
     inkscape:groupmode="layer"
     id="layer2"
     inkscape:label="parts"
     style="display:none">
    <path
       style="fill:none;stroke:#000000;stroke-width:0.26458332px;stroke-linecap:butt;stroke-linejoin:miter;stroke-opacity:1"
       d="m 24.568452,108.76785 5.669642,7.18155 C 42.083585,77.348369 66.760218,62.05819 99.502235,58.874999 l -0.0945,-0.755953 C 69.724294,59.969423 40.464681,76.310154 24.568452,108.76785 Z"
       id="path815"
       inkscape:connector-curvature="0"
       sodipodi:nodetypes="ccccc" />
    <path
       style="fill:none;stroke:#000000;stroke-width:0.26458332px;stroke-linecap:butt;stroke-linejoin:miter;stroke-opacity:1"
       d="m 33.007786,93.741522 c -2.822372,-8.807117 0.436597,-20.294036 6.949009,-26.860587 9.708743,-9.789454 26.202935,-9.729252 39.956792,-10.690781 6.580949,-0.460073 18.469747,-4.086182 19.64431,2.405425 0.876183,4.842527 -8.916419,4.217844 -13.096205,6.815373 -8.066775,5.013098 -15.098152,11.546591 -22.98518,16.83798 -8.285538,5.558749 -15.574,16.37185 -25.52424,15.635269 -2.14432,-0.158736 -4.288298,-2.095066 -4.944486,-4.142679 z"
       id="path817"
       inkscape:connector-curvature="0"
       sodipodi:nodetypes="ssssssss" />
  </g>
</svg>
