<?xml version="1.0" encoding="UTF-8" standalone="no"?>
<!-- Created with Inkscape (http://www.inkscape.org/) -->

<svg
   xmlns:dc="http://purl.org/dc/elements/1.1/"
   xmlns:cc="http://creativecommons.org/ns#"
   xmlns:rdf="http://www.w3.org/1999/02/22-rdf-syntax-ns#"
   xmlns:svg="http://www.w3.org/2000/svg"
   xmlns="http://www.w3.org/2000/svg"
   xmlns:sodipodi="http://sodipodi.sourceforge.net/DTD/sodipodi-0.dtd"
   xmlns:inkscape="http://www.inkscape.org/namespaces/inkscape"
   width="210mm"
   height="297mm"
   viewBox="0 0 210 297"
   version="1.1"
   id="svg977"
   inkscape:version="0.92.4 (5da689c313, 2019-01-14)"
   sodipodi:docname="elephent.svg">
  <defs
     id="defs971" />
  <sodipodi:namedview
     id="base"
     pagecolor="#ffffff"
     bordercolor="#666666"
     borderopacity="1.0"
     inkscape:pageopacity="0.0"
     inkscape:pageshadow="2"
     inkscape:zoom="0.49497475"
     inkscape:cx="259.80418"
     inkscape:cy="519.37844"
     inkscape:document-units="mm"
     inkscape:current-layer="layer1"
     showgrid="false"
     inkscape:window-width="1780"
     inkscape:window-height="1051"
     inkscape:window-x="-9"
     inkscape:window-y="-9"
     inkscape:window-maximized="1"
     inkscape:snap-global="false" />
  <metadata
     id="metadata974">
    <rdf:RDF>
      <cc:Work
         rdf:about="">
        <dc:format>image/svg+xml</dc:format>
        <dc:type
           rdf:resource="http://purl.org/dc/dcmitype/StillImage" />
        <dc:title></dc:title>
      </cc:Work>
    </rdf:RDF>
  </metadata>
  <g
     inkscape:label="Layer 1"
     inkscape:groupmode="layer"
     id="layer1">
    <path
       style="fill:#bbbbbb;fill-opacity:1;stroke:#000000;stroke-width:0.465;stroke-linecap:butt;stroke-linejoin:miter;stroke-miterlimit:4;stroke-dasharray:none;stroke-opacity:1"
       d="m 76.439083,170.31424 0.734994,23.78699 -0.133031,4.53133 c 0.09714,6.11152 0.08476,19.00778 -0.745092,23.72882 2.919726,2.47824 7.712196,1.88078 11.133606,0.34555 -2.756344,-8.29279 -0.848464,-19.42904 -1.368773,-25.93301 l 1.336347,-29.64399 c 6.843713,1.07573 5.504098,6.04005 22.851546,-4.43287 l 2.71461,15.89257 c 0.84935,9.00824 2.87222,32.85853 0.54798,44.58699 5.17897,2.71168 6.47478,1.26675 9.22079,-0.4009 l 6.89366,-37.49439 c 5.7009,-22.80244 1.97555,-40.69088 3.0736,-67.35192 l -11.8935,-8.01808 -34.210495,-3.20724 -15.501631,10.69078 3.207234,33.94324 z"
       id="path1547"
       inkscape:connector-curvature="0"
       sodipodi:nodetypes="cccccccccccccccccc" />
    <path
       style="fill:#bbbbbb;fill-opacity:1;stroke:#000000;stroke-width:0.565;stroke-linecap:butt;stroke-linejoin:miter;stroke-miterlimit:4;stroke-dasharray:none;stroke-opacity:1"
       d="m 123.59821,232.12009 c 0,3.02464 20.45264,1.53108 17.42883,0.83817 -2.94742,-0.6754 -7.41245,-32.34219 -7.03448,-34.98802 0.37798,-2.64584 -2.07887,-77.48512 -2.07887,-77.48512 2.08888,-12.69302 -6.6922,-21.245096 -11.33929,-31.372026 L 74.083332,100.83035 61.232142,154.125 57.830357,196.08036 c -1.785983,12.93299 -2.01373,28.98246 -6.04762,37.41964 7.937999,4.9146 11.859173,2.46502 17.008929,2.26785 -2.732799,-11.73001 -0.4862,-24.08245 0.566964,-36.28571 l 7.370535,-37.93356 c 0,0 12.539075,8.16067 19.465773,7.91851 7.200622,-0.25174 19.889612,-5.81672 19.889612,-5.81672 l 5.62378,34.69784 1.13393,18.70982 z"
       id="path1545"
       inkscape:connector-curvature="0"
       sodipodi:nodetypes="csccccccccccscccc" />
    <path
       sodipodi:nodetypes="cczcssc"
       inkscape:connector-curvature="0"
       id="path1553"
       d="m 85.308113,124.75541 0.792945,20.64055 c 0,0 -14.925377,-13.07805 -20.4295,-19.00185 -5.504123,-5.9238 -4.891179,-6.58754 -13.773221,-19.17069 1.654642,-7.14727 3.997927,-21.607291 9.707788,-25.865207 12.346036,-9.206595 24.11154,7.589022 23.587678,9.144228 -0.523856,1.555209 0.11431,34.252969 0.11431,34.252969 z"
       style="fill:#bbbbbb;fill-opacity:1;stroke:#000000;stroke-width:0.495;stroke-linecap:butt;stroke-linejoin:miter;stroke-miterlimit:4;stroke-dasharray:none;stroke-opacity:1" />
    <path
       sodipodi:nodetypes="cccc"
       inkscape:connector-curvature="0"
       id="path1543"
       d="m 81.933318,155.43803 c -3.355669,-11.25953 0.394402,-20.47876 2.55068,-30.28651 l 5.050968,-2.66666 c -2.605746,11.78096 -7.904779,23.8853 -7.601648,32.95317 z"
       style="fill:#ffffff;fill-opacity:1;stroke:#000000;stroke-width:0.26458332px;stroke-linecap:butt;stroke-linejoin:miter;stroke-opacity:1" />
    <path
       sodipodi:nodetypes="ccccc"
       inkscape:transform-center-y="-8.1762374"
       inkscape:transform-center-x="1.13031"
       inkscape:connector-curvature="0"
       id="path1551"
       d="m 79.271058,100.85166 1.698558,2.1014 2.123194,-1.05071 -1.840106,-3.534164 z"
       style="fill:#000000;fill-opacity:1;stroke:#000000;stroke-width:0.23021571px;stroke-linecap:butt;stroke-linejoin:miter;stroke-opacity:1" />
    <path
       style="fill:#bbbbbb;fill-opacity:1;stroke:#000000;stroke-width:0.51200002;stroke-linecap:butt;stroke-linejoin:miter;stroke-miterlimit:4;stroke-dasharray:none;stroke-opacity:1"
       d="m 126.77284,115.5461 3.8589,21.19675 c 0,0 23.43697,-8.25097 29.62719,-12.50335 6.19023,-4.25238 16.1947,-5.36331 19.47038,-21.8161 -0.38246,-1.32079 -17.81204,-20.496447 -26.10584,-20.591917 -12.31094,-0.141711 -23.57817,5.862106 -23.23441,7.237158 0.34376,1.375056 -3.61622,26.477459 -3.61622,26.477459 z"
       id="path1522"
       inkscape:connector-curvature="0"
       sodipodi:nodetypes="cczcssc" />
    <path
       style="fill:#bbbbbb;fill-opacity:1;stroke:#000000;stroke-width:0.412;stroke-linecap:butt;stroke-linejoin:miter;stroke-miterlimit:4;stroke-dasharray:none;stroke-opacity:1"
       d="m 82.656084,190.89996 c 0.744891,3.22515 5.336228,9.21074 7.64098,7.94495 5.206541,-2.85949 2.863101,-22.56453 0.992117,-31.18128 -2.54731,-11.73155 -4.669292,-18.52346 -5.210053,-22.36835 -0.516165,-3.67 -1.465513,-1.058 -1.606113,-8.43306 -0.122144,-6.40699 1.884377,-7.71634 -1.173603,-16.53288 -2.155627,-6.21495 -2.352251,-29.939873 1.576096,-34.036929 1.344226,-1.401956 12.051332,-10.360572 19.365512,-12.001567 4.73091,-0.157571 8.78037,0.491581 12.1896,1.744094 4.68667,1.721828 6.08456,5.339838 10.53734,8.057852 9.69764,7.598351 -1.03041,26.8123 -3.928,41.97786 -0.97005,4.95568 -13.14108,12.50131 -15.702,16.39155 -1.70356,2.58784 -4.31002,7.53556 -4.85643,14.04295 0.86056,3.00324 1.00569,29.47599 -3.67732,45.21861 -1.921246,6.45855 -6.241374,7.05173 -7.619486,7.54117 -4.97792,1.76791 -10.46121,-11.60355 -14.240506,-13.42876 -2.284202,0.33243 1.725743,-5.91553 5.711866,-4.93621 z"
       id="path1526"
       inkscape:connector-curvature="0"
       sodipodi:nodetypes="csssssscsccscsscc" />
    <path
       style="fill:#f6f6f6;fill-opacity:1;stroke:#000000;stroke-width:0.26458332px;stroke-linecap:butt;stroke-linejoin:miter;stroke-opacity:1"
       d="m 98.898907,155.86227 c 12.331673,-0.74567 22.914933,-10.98614 21.412633,-25.94626 -3.77123,-1.63855 -5.72935,-0.73875 -6.99255,1.13393 3.1366,13.81639 -5.96159,19.05934 -14.420083,24.81233 z"
       id="path1541"
       inkscape:connector-curvature="0"
       sodipodi:nodetypes="cccc" />
    <path
       style="fill:#000000;fill-opacity:1;stroke:#000000;stroke-width:0.26458332px;stroke-linecap:butt;stroke-linejoin:miter;stroke-opacity:1"
       d="m 117.83408,101.01935 2.26786,2.07887 2.83482,-1.03945 -2.45685,-3.496276 z"
       id="path1549"
       inkscape:connector-curvature="0"
       inkscape:transform-center-x="1.5091537"
       inkscape:transform-center-y="-8.0885866"
       sodipodi:nodetypes="ccccc" />
    <path
       style="fill:#bbbbbb;stroke:#000000;stroke-width:0.26458332px;stroke-linecap:butt;stroke-linejoin:miter;stroke-opacity:1;fill-opacity:1"
       d="m 77.533755,191.59868 c -1.255527,1.13018 -1.590575,4.35283 -1.133927,4.86539 0.661458,0.74244 5.102678,0.336 5.575149,-0.61792 0.224976,-0.45423 2.637228,-3.68655 1.322917,-5.07367 -1.315349,-1.38821 -4.339511,-0.4562 -5.764139,0.8262 z"
       id="path1607"
       inkscape:connector-curvature="0"
       sodipodi:nodetypes="sssss" />
    <path
       style="fill:none;stroke:#000000;stroke-width:0.565;stroke-linecap:butt;stroke-linejoin:miter;stroke-opacity:1;stroke-miterlimit:4;stroke-dasharray:none"
       d="M 76.706353,161.09344 78.0427,155.88169"
       id="path1611"
       inkscape:connector-curvature="0" />
    <path
       inkscape:connector-curvature="0"
       id="path1613"
       d="m 116.2021,163.58095 -0.65189,-5.34071"
       style="fill:none;stroke:#000000;stroke-width:0.565;stroke-linecap:butt;stroke-linejoin:miter;stroke-miterlimit:4;stroke-dasharray:none;stroke-opacity:1" />
  </g>
  <g
     inkscape:groupmode="layer"
     id="layer6"
     inkscape:label="shadows"
     style="display:inline">
    <path
       style="fill:#3c3c3c;fill-opacity:0.44878049;stroke:none;stroke-width:0.26499999;stroke-linecap:butt;stroke-linejoin:miter;stroke-miterlimit:4;stroke-dasharray:none;stroke-opacity:1"
       d="m 76.962824,162.03499 10.44417,5.50815 -0.177318,2.17338 -0.2882,1.95906 -0.584567,12.10851 c -4.97095,4.11663 -8.137713,-4.08013 -9.249768,-4.19295 l -1.150492,-12.78682 z"
       id="path1556"
       inkscape:connector-curvature="0"
       sodipodi:nodetypes="cccccccc" />
    <path
       style="fill:#3c3c3c;fill-opacity:0.44705882;stroke:none;stroke-width:0.26458332px;stroke-linecap:butt;stroke-linejoin:miter;stroke-opacity:1"
       d="m 111.01389,165.79566 c 0.009,0.004 -7.96179,2.08449 -7.96179,2.08449 l 12.82059,-3.83819 3.28595,21.42564 c -0.70417,1.5218 -4.69141,-3.97544 -5.99486,-4.37132 z"
       id="path1571"
       inkscape:connector-curvature="0"
       sodipodi:nodetypes="cccccc" />
    <path
       style="fill:#3c3c3c;fill-opacity:0.44705882;stroke:none;stroke-width:0.26458332px;stroke-linecap:butt;stroke-linejoin:miter;stroke-opacity:1"
       d="m 120.30793,130.09156 c 2.17,-2.10777 3.51481,-7.47404 4.52978,-10.96785 l 3.54325,19.42156 -18.46957,14.0667 c 7.43692,-6.6045 9.76452,-11.28571 10.39654,-22.52041 z"
       id="path1575"
       inkscape:connector-curvature="0"
       sodipodi:nodetypes="ccccc" />
    <path
       style="fill:#3c3c3c;fill-opacity:0.44705882;stroke:none;stroke-width:0.26458332px;stroke-linecap:butt;stroke-linejoin:miter;stroke-opacity:1"
       d="m 107.16098,143.16565 c 2.6363,-4.01087 3.95722,-4.119 6.84652,-6.67428 l -0.51704,3.70519 -1.17432,3.75139 c -2.22381,3.80288 -7.58757,8.2868 -9.43205,9.07178 0.88538,-3.70489 2.2581,-7.03074 4.27689,-9.85408 z"
       id="path1577"
       inkscape:connector-curvature="0"
       sodipodi:nodetypes="cccccc" />
    <path
       style="fill:#3c3c3c;fill-opacity:0.44705882;stroke:none;stroke-width:0.26458332px;stroke-linecap:butt;stroke-linejoin:miter;stroke-opacity:1"
       d="m 102.51662,155.43051 7.48758,-2.86609 -3.9429,14.68174 c -2.87048,1.01534 -0.0631,-0.0826 -2.96608,0.83366 z"
       id="path1581"
       inkscape:connector-curvature="0"
       sodipodi:nodetypes="ccccc" />
    <path
       style="fill:#3c3c3c;fill-opacity:0.44705882;stroke:none;stroke-width:0.35768488px;stroke-linecap:butt;stroke-linejoin:miter;stroke-opacity:1"
       d="m 119.28958,145.40779 8.48033,-6.38912 c -3.94089,14.61737 -6.21721,17.48633 -12.40571,22.23475 l -2.92587,0.88458 c 6.4757,-4.84159 6.60598,-9.56748 6.85122,-16.73021 z"
       id="path1583"
       inkscape:connector-curvature="0"
       sodipodi:nodetypes="cccccc" />
    <path
       sodipodi:nodetypes="ccccccc"
       inkscape:connector-curvature="0"
       id="path1585"
       d="m 129.8254,86.355365 c 7.48565,-2.358001 12.29515,0.173386 17.07251,2.736932 1.27149,3.69935 -1.35034,13.465313 -3.31669,19.157193 -0.93091,11.22301 -7.84451,17.81424 -16.53239,23.03184 l -2.3951,-11.12735 5.88487,-20.249054 z"
       style="fill:#3c3c3c;fill-opacity:0.44705882;stroke:none;stroke-width:0.26458332px;stroke-linecap:butt;stroke-linejoin:miter;stroke-opacity:1" />
    <path
       sodipodi:nodetypes="ccccc"
       inkscape:connector-curvature="0"
       id="path1587"
       d="m 73.016577,154.27399 4.85321,2.00863 -8.295534,42.93572 -4.472822,-0.43054 z"
       style="fill:#3c3c3c;fill-opacity:0.44705882;stroke:none;stroke-width:0.26458332px;stroke-linecap:butt;stroke-linejoin:miter;stroke-opacity:1" />
    <path
       style="fill:#3c3c3c;fill-opacity:0.44705882;stroke:none;stroke-width:0.26458332px;stroke-linecap:butt;stroke-linejoin:miter;stroke-opacity:1"
       d="m 65.315887,198.43744 4.324811,0.31682 -2.549669,22.8419 1.766412,13.80193 -5.890233,0.51441 z"
       id="path1589"
       inkscape:connector-curvature="0"
       sodipodi:nodetypes="cccccc" />
    <path
       style="fill:#3c3c3c;fill-opacity:0.44705882;stroke:none;stroke-width:0.26458332px;stroke-linecap:butt;stroke-linejoin:miter;stroke-opacity:1"
       d="m 127.12814,143.03344 0.66032,-3.88194 -0.96673,-7.87064 2.36805,-1.84194 1.57376,7.58992 1.7231,-0.9683 0.29918,10.16845 c 0.13458,7.63252 1.32658,12.26437 0.25407,18.34491 l 0.57255,25.07517 -5.51897,0.8918 z"
       id="path1591"
       inkscape:connector-curvature="0"
       sodipodi:nodetypes="ccccccccccc" />
    <path
       sodipodi:nodetypes="cccccc"
       inkscape:connector-curvature="0"
       id="path1593"
       d="m 128.1371,190.37625 5.64959,-0.74785 1.07409,13.55376 c 1.22779,7.62775 1.29548,25.55537 6.10069,30.01686 l -9.48322,1.37288 z"
       style="fill:#3c3c3c;fill-opacity:0.44705882;stroke:none;stroke-width:0.26458332px;stroke-linecap:butt;stroke-linejoin:miter;stroke-opacity:1" />
    <path
       sodipodi:nodetypes="ccccscssc"
       inkscape:connector-curvature="0"
       id="path1597"
       d="m 99.09121,155.90298 3.12521,-0.35922 c 0.26138,3.27115 0.6021,6.63073 0.44101,9.73289 -0.12927,10.06463 -0.24066,20.11495 -2.827662,32.14577 -3.243276,12.98436 -6.977472,10.98079 -9.108123,11.85635 -1.953244,0.80266 -5.705916,-1.86503 -6.210521,-4.70987 1.826821,0.57331 5.406627,4.37635 8.891525,0.94773 2.854266,-2.80818 5.53156,-15.69661 5.771321,-19.57119 0.580084,-9.37427 -1.31678,-22.39043 -0.08276,-30.04246 z"
       style="fill:#3c3c3c;fill-opacity:0.44705882;stroke:none;stroke-width:0.26458332px;stroke-linecap:butt;stroke-linejoin:miter;stroke-opacity:1" />
    <path
       style="fill:#3c3c3c;fill-opacity:0.44705882;stroke:none;stroke-width:0.26458332px;stroke-linecap:butt;stroke-linejoin:miter;stroke-opacity:1"
       d="m 82.440256,195.07796 c 1.092037,-1.05181 0.08899,-2.08232 1.409821,-2.44776 l 1.578834,3.27889 3.674201,3.36747 0.575158,0.19693 c -3.675912,-1.0671 -4.065735,-0.43253 -7.238014,-4.39553 z"
       id="path1599"
       inkscape:connector-curvature="0"
       sodipodi:nodetypes="cccccc" />
    <path
       style="fill:#3c3c3c;fill-opacity:0.44705882;stroke:none;stroke-width:0.26458332px;stroke-linecap:butt;stroke-linejoin:miter;stroke-opacity:1"
       d="m 129.18078,86.704708 c 3.17221,4.106386 3.16789,3.572195 0.54332,15.562212 l -7.55832,26.1158 -1.56474,1.57148 -6.23972,-0.25105 c 3.34735,-10.39545 4.18234,-19.17646 4.95456,-28.74696 0.25256,-3.130013 1.42442,-5.50921 1.32295,-9.103055 -0.2059,-7.292211 -6.87334,-14.990472 -7.17802,-16.65096 6.0796,0.780473 15.17037,11.515356 15.71997,11.502533 z"
       id="path1601"
       inkscape:connector-curvature="0"
       sodipodi:nodetypes="cccccsscc" />
    <path
       sodipodi:nodetypes="ccsccc"
       inkscape:connector-curvature="0"
       id="path1603"
       d="m 118.82186,129.57207 1.53132,0.49307 c 0.069,6.04888 -0.56557,9.29582 -3.32591,14.68727 -4.07088,7.95117 -13.04627,10.98979 -17.778171,11.16783 7.538421,-2.70677 14.392141,-5.99244 16.470001,-11.36261 2.83212,-7.37156 3.10276,-14.98556 3.10276,-14.98556 z"
       style="fill:#3c3c3c;fill-opacity:0.44705882;stroke:none;stroke-width:0.35768488px;stroke-linecap:butt;stroke-linejoin:miter;stroke-opacity:1" />
    <path
       style="fill:#3c3c3c;fill-opacity:0.44705882;stroke:none;stroke-width:0.35768488px;stroke-linecap:butt;stroke-linejoin:miter;stroke-opacity:1"
       d="m 84.85125,129.66656 -0.406384,10.9834 c 0,0 -0.04868,-1.73098 -1.120936,4.23035 -1.297959,7.21618 -1.050563,7.00384 -1.601102,10.22932 -0.187571,-4.83052 0.253002,-5.35461 0.59361,-10.49092 2.230763,-8.20678 2.534812,-14.95215 2.534812,-14.95215 z"
       id="path1605"
       inkscape:connector-curvature="0"
       sodipodi:nodetypes="ccsccc" />
    <path
       style="fill:#000000;fill-opacity:1;stroke:#000000;stroke-width:0.26458332px;stroke-linecap:butt;stroke-linejoin:miter;stroke-opacity:1"
       d="m 77.507948,194.62766 c 0.205879,0.18621 0.529109,-0.0574 0.732278,-0.24837 0.617326,-0.58022 1.517087,-1.58325 1.220462,-2.48371 -0.17393,-0.52799 -0.901321,-0.58867 -1.3181,-0.37255 -0.413772,0.21456 -0.620871,0.87774 -0.732278,1.42813 -0.109844,0.54267 -0.261412,1.35177 0.09764,1.6765 z"
       id="path1609"
       inkscape:connector-curvature="0"
       sodipodi:nodetypes="ssssss" />
    <path
       sodipodi:nodetypes="ccccc"
       inkscape:connector-curvature="0"
       id="path1624"
       d="m 82.67135,203.14478 3.222324,3.92496 1.459374,15.82607 -3.455409,0.77971 z"
       style="fill:#3c3c3c;fill-opacity:0.44705882;stroke:none;stroke-width:0.26458332px;stroke-linecap:butt;stroke-linejoin:miter;stroke-opacity:1" />
    <path
       style="fill:#3c3c3c;fill-opacity:0.44705882;stroke:none;stroke-width:0.26458332px;stroke-linecap:butt;stroke-linejoin:miter;stroke-opacity:1"
       d="m 83.711768,185.38649 2.749854,-1.50845 -0.572248,12.56602 -1.660022,-2.62207 z"
       id="path1626"
       inkscape:connector-curvature="0"
       sodipodi:nodetypes="ccccc" />
    <path
       sodipodi:nodetypes="ssssss"
       inkscape:connector-curvature="0"
       id="path1628"
       d="m 80.01204,194.95839 c 0.205879,0.18621 0.529109,-0.0574 0.732278,-0.24837 0.617326,-0.58022 1.517087,-1.58325 1.220462,-2.48371 -0.17393,-0.52799 -0.901321,-0.58867 -1.3181,-0.37255 -0.413772,0.21456 -0.620871,0.87774 -0.732278,1.42813 -0.109844,0.54267 -0.261412,1.35177 0.09764,1.6765 z"
       style="fill:#000000;fill-opacity:1;stroke:#000000;stroke-width:0.26458332px;stroke-linecap:butt;stroke-linejoin:miter;stroke-opacity:1"
       inkscape:transform-center-x="2.3151463"
       inkscape:transform-center-y="-0.80283325" />
    <path
       sodipodi:nodetypes="ccccc"
       inkscape:connector-curvature="0"
       id="path1630"
       d="m 106.36085,166.97485 0.35199,-4.40417 c 6.14736,-1.02808 9.3822,-4.53254 9.3822,-4.53254 l -0.0844,5.91205 z"
       style="fill:#3c3c3c;fill-opacity:0.44705882;stroke:none;stroke-width:0.26458332px;stroke-linecap:butt;stroke-linejoin:miter;stroke-opacity:1" />
    <path
       style="fill:#3c3c3c;fill-opacity:0.44705882;stroke:none;stroke-width:0.26458332px;stroke-linecap:butt;stroke-linejoin:miter;stroke-opacity:1"
       d="m 76.722419,161.55885 1.620359,-5.00242 c 5.236055,3.38093 10.837956,3.91466 10.837956,3.91466 l 2.475417,8.65951 z"
       id="path1632"
       inkscape:connector-curvature="0"
       sodipodi:nodetypes="ccccc" />
  </g>
</svg>
