<?xml version="1.0" encoding="UTF-8" standalone="no"?>
<svg
   xmlns:dc="http://purl.org/dc/elements/1.1/"
   xmlns:cc="http://creativecommons.org/ns#"
   xmlns:rdf="http://www.w3.org/1999/02/22-rdf-syntax-ns#"
   xmlns:svg="http://www.w3.org/2000/svg"
   xmlns="http://www.w3.org/2000/svg"
   xmlns:sodipodi="http://sodipodi.sourceforge.net/DTD/sodipodi-0.dtd"
   xmlns:inkscape="http://www.inkscape.org/namespaces/inkscape"
   id="svg2134"
   version="1.1"
   viewBox="0 0 210 297"
   height="297mm"
   width="210mm"
   sodipodi:docname="feather.svg"
   inkscape:version="0.92.4 (5da689c313, 2019-01-14)">
  <sodipodi:namedview
     pagecolor="#ffffff"
     bordercolor="#666666"
     borderopacity="1"
     objecttolerance="10"
     gridtolerance="10"
     guidetolerance="10"
     inkscape:pageopacity="0"
     inkscape:pageshadow="2"
     inkscape:window-width="1780"
     inkscape:window-height="1051"
     id="namedview2652"
     showgrid="false"
     inkscape:zoom="0.5946522"
     inkscape:cx="232.86551"
     inkscape:cy="480.99897"
     inkscape:window-x="-9"
     inkscape:window-y="-9"
     inkscape:window-maximized="1"
     inkscape:current-layer="svg2134" />
  <defs
     id="defs2128" />
  <metadata
     id="metadata2131">
    <rdf:RDF>
      <cc:Work
         rdf:about="">
        <dc:format>image/svg+xml</dc:format>
        <dc:type
           rdf:resource="http://purl.org/dc/dcmitype/StillImage" />
        <dc:title />
      </cc:Work>
    </rdf:RDF>
  </metadata>
  <path
     inkscape:connector-curvature="0"
     style="display:inline;fill:#ffffff;fill-opacity:1;stroke:#8a8a8a;stroke-width:0.43348691px;stroke-linecap:butt;stroke-linejoin:miter;stroke-opacity:1"
     d="m 166.3859,106.55102 c -5.00699,0.0488 -10.83861,1.10102 -15.85781,1.79744 l 0.29801,0.1219 c -6.26453,1.90469 -6.85226,6.87189 -9.63152,10.65685 2.00057,-3.48126 1.83572,-7.66351 6.17125,-10.3893 -0.54595,0.0565 -1.08103,0.10747 -1.59088,0.14303 -15.15995,1.05983 -32.34786,1.36917 -46.819993,6.3372 -4.895631,8.67507 -0.740595,15.6302 -0.363195,23.30331 -1.182072,-7.28201 -6.505761,-12.9589 -2.438379,-22.27462 -5.936556,2.35847 -11.336767,5.60557 -15.843431,10.14969 -2.159003,2.17696 -4.09517,4.68783 -5.779256,7.42177 -1.90412,9.07261 3.826476,13.55085 6.516689,19.85828 -2.970539,-5.24967 -8.517441,-8.22351 -8.667188,-15.96536 -5.018804,10.17293 -6.714638,22.5217 -3.455204,32.6927 1.075086,3.35476 4.588435,6.52755 8.101637,6.78763 12.297675,0.91035 23.07486,-7.74164 32.72912,-16.86619 -9.959094,1.328 -12.974672,-5.19305 -18.825378,-8.50889 6.45199,2.75701 10.984018,8.70043 20.490738,6.38971 l -1.45537,1.91851 c 3.06791,-2.90658 6.02554,-5.85379 8.87884,-8.54951 5.87719,-5.55263 11.81559,-11.60794 18.81604,-17.32171 -8.51202,0.1527 -12.26105,-5.80357 -18.34277,-8.76795 6.92856,2.46456 12.2054,8.09953 21.28321,6.43966 3.6464,-2.79445 7.58881,-5.47636 11.96067,-7.93738 3.00725,-1.69285 8.35386,-2.52988 13.37629,-3.55426 -4.61729,-1.07821 -6.27369,-4.83481 -9.50032,-7.17115 4.32493,2.44722 7.04767,6.98603 13.92071,6.10606 l -0.0609,0.0644 c 4.75316,-1.27641 8.29896,-3.0914 7.66224,-6.61067 -0.90207,-4.98549 -5.66129,-6.32873 -11.57378,-6.27117 z"
     id="path835-8-2" />
  <path
     inkscape:connector-curvature="0"
     style="display:inline;fill:#ffffff;fill-opacity:1;stroke:#8a8a8a;stroke-width:0.43416956;stroke-linecap:butt;stroke-linejoin:miter;stroke-miterlimit:4;stroke-dasharray:none;stroke-opacity:1"
     d="m 52.661164,114.07808 2.631887,0.30963 c -8.255579,5.25 -7.113123,12.63591 -9.598654,19.19728 1.669538,-6.5295 -0.956746,-13.238 6.966767,-19.50691 z"
     id="path855-1-9" />
  <path
     inkscape:connector-curvature="0"
     style="display:inline;fill:#ffffff;fill-opacity:1;stroke:#8a8a8a;stroke-width:0.43416956;stroke-linecap:butt;stroke-linejoin:miter;stroke-miterlimit:4;stroke-dasharray:none;stroke-opacity:1"
     d="m 50.265285,141.59386 2.112604,-1.59989 c -2.317089,9.50517 3.623284,14.04047 6.375952,20.49431 -3.319087,-5.8656 -9.860319,-8.88445 -8.488556,-18.89442 z"
     id="path859-3-6" />
  <path
     inkscape:connector-curvature="0"
     id="path868-5-5"
     d="m 148.76097,164.69098 1.46722,-2.20679 c -9.34507,2.89597 -14.23634,-2.75493 -20.84692,-5.10638 6.0582,2.95291 9.47276,9.29657 19.3797,7.31317 z"
     style="display:inline;fill:#ffffff;fill-opacity:1;stroke:#8a8a8a;stroke-width:0.43416956;stroke-linecap:butt;stroke-linejoin:miter;stroke-miterlimit:4;stroke-dasharray:none;stroke-opacity:1" />
  <path
     inkscape:connector-curvature="0"
     style="display:inline;fill:#ffffff;fill-opacity:1;stroke:#8a8a8a;stroke-width:0.29057103;stroke-linecap:butt;stroke-linejoin:miter;stroke-miterlimit:4;stroke-dasharray:none;stroke-opacity:1"
     d="m 140.31761,94.22401 1.64148,0.671619 c -6.26456,1.904694 -6.85237,6.871871 -9.63163,10.656831 2.24741,-3.91072 1.75703,-8.707229 7.99015,-11.32845 z"
     id="path876-1-5" />
  <path
     inkscape:connector-curvature="0"
     style="display:inline;fill:#ffffff;fill-opacity:1;stroke:#8a8a8a;stroke-width:0.30749813;stroke-linecap:butt;stroke-linejoin:miter;stroke-miterlimit:4;stroke-dasharray:none;stroke-opacity:1"
     d="m 178.47997,128.93962 1.2929,-1.36052 c -6.873,0.87997 -9.59578,-3.6593 -13.92072,-6.10654 3.86616,2.79943 5.47417,7.64179 12.62782,7.46706 z"
     id="path882-9-2" />
  <path
     inkscape:connector-curvature="0"
     id="path1003-1"
     d="m 52.661164,114.07808 2.631887,0.30963 c -8.255579,5.25 -7.113123,12.63591 -9.598654,19.19728 1.669538,-6.5295 -0.956746,-13.238 6.966767,-19.50691 z"
     style="display:inline;fill:#ffffff;fill-opacity:1;stroke:#8a8a8a;stroke-width:0.43416956;stroke-linecap:butt;stroke-linejoin:miter;stroke-miterlimit:4;stroke-dasharray:none;stroke-opacity:1" />
  <path
     inkscape:connector-curvature="0"
     id="path1005-9"
     d="m 50.265285,141.59386 2.112604,-1.59989 c -2.317089,9.50517 3.623284,14.04047 6.375952,20.49431 -3.319087,-5.8656 -9.860319,-8.88445 -8.488556,-18.89442 z"
     style="display:inline;fill:#ffffff;fill-opacity:1;stroke:#8a8a8a;stroke-width:0.43416956;stroke-linecap:butt;stroke-linejoin:miter;stroke-miterlimit:4;stroke-dasharray:none;stroke-opacity:1" />
  <path
     inkscape:connector-curvature="0"
     style="display:inline;fill:#ffffff;fill-opacity:1;stroke:#8a8a8a;stroke-width:0.43416956;stroke-linecap:butt;stroke-linejoin:miter;stroke-miterlimit:4;stroke-dasharray:none;stroke-opacity:1"
     d="m 148.76097,164.69098 1.46722,-2.20679 c -9.34507,2.89597 -14.23634,-2.75493 -20.84692,-5.10638 6.0582,2.95291 9.47276,9.29657 19.3797,7.31317 z"
     id="path1007-9" />
  <path
     inkscape:connector-curvature="0"
     id="path1009-3"
     d="m 140.31761,94.22401 1.64148,0.671619 c -6.26456,1.904694 -6.85237,6.871871 -9.63163,10.656831 2.24741,-3.91072 1.75703,-8.707229 7.99015,-11.32845 z"
     style="display:inline;fill:#ffffff;fill-opacity:1;stroke:#8a8a8a;stroke-width:0.29057103;stroke-linecap:butt;stroke-linejoin:miter;stroke-miterlimit:4;stroke-dasharray:none;stroke-opacity:1" />
  <path
     inkscape:connector-curvature="0"
     id="path1011-0"
     d="m 178.47997,128.93962 1.2929,-1.36052 c -6.873,0.87997 -9.59578,-3.6593 -13.92072,-6.10654 3.86616,2.79943 5.47417,7.64179 12.62782,7.46706 z"
     style="display:inline;fill:#ffffff;fill-opacity:1;stroke:#8a8a8a;stroke-width:0.30749813;stroke-linecap:butt;stroke-linejoin:miter;stroke-miterlimit:4;stroke-dasharray:none;stroke-opacity:1" />
  <path
     inkscape:connector-curvature="0"
     id="path1245"
     d="m 52.661164,114.07808 2.631887,0.30963 c -8.255579,5.25 -7.113123,12.63591 -9.598654,19.19728 1.669538,-6.5295 -0.956746,-13.238 6.966767,-19.50691 z"
     style="display:inline;fill:#ffffff;fill-opacity:1;stroke:#8a8a8a;stroke-width:0.43416956;stroke-linecap:butt;stroke-linejoin:miter;stroke-miterlimit:4;stroke-dasharray:none;stroke-opacity:1" />
  <path
     inkscape:connector-curvature="0"
     id="path1247"
     d="m 50.265285,141.59386 2.112604,-1.59989 c -2.317089,9.50517 3.623284,14.04047 6.375952,20.49431 -3.319087,-5.8656 -9.860319,-8.88445 -8.488556,-18.89442 z"
     style="display:inline;fill:#ffffff;fill-opacity:1;stroke:#8a8a8a;stroke-width:0.43416956;stroke-linecap:butt;stroke-linejoin:miter;stroke-miterlimit:4;stroke-dasharray:none;stroke-opacity:1" />
  <path
     inkscape:connector-curvature="0"
     style="display:inline;fill:#ffffff;fill-opacity:1;stroke:#8a8a8a;stroke-width:0.43416956;stroke-linecap:butt;stroke-linejoin:miter;stroke-miterlimit:4;stroke-dasharray:none;stroke-opacity:1"
     d="m 148.76097,164.69098 1.46722,-2.20679 c -9.34507,2.89597 -14.23634,-2.75493 -20.84692,-5.10638 6.0582,2.95291 9.47276,9.29657 19.3797,7.31317 z"
     id="path1249" />
  <path
     inkscape:connector-curvature="0"
     id="path1251"
     d="m 140.31761,94.22401 1.64148,0.671619 c -6.26456,1.904694 -6.85237,6.871871 -9.63163,10.656831 2.24741,-3.91072 1.75703,-8.707229 7.99015,-11.32845 z"
     style="display:inline;fill:#ffffff;fill-opacity:1;stroke:#8a8a8a;stroke-width:0.29057103;stroke-linecap:butt;stroke-linejoin:miter;stroke-miterlimit:4;stroke-dasharray:none;stroke-opacity:1" />
  <path
     inkscape:connector-curvature="0"
     id="path1253"
     d="m 178.47997,128.93962 1.2929,-1.36052 c -6.873,0.87997 -9.59578,-3.6593 -13.92072,-6.10654 3.86616,2.79943 5.47417,7.64179 12.62782,7.46706 z"
     style="display:inline;fill:#ffffff;fill-opacity:1;stroke:#8a8a8a;stroke-width:0.30749813;stroke-linecap:butt;stroke-linejoin:miter;stroke-miterlimit:4;stroke-dasharray:none;stroke-opacity:1" />
  <path
     inkscape:connector-curvature="0"
     style="display:inline;fill:#ffffff;fill-opacity:1;stroke:#8a8a8a;stroke-width:0.43416956;stroke-linecap:butt;stroke-linejoin:miter;stroke-miterlimit:4;stroke-dasharray:none;stroke-opacity:1"
     d="m 52.661164,114.07808 2.631887,0.30963 c -8.255579,5.25 -7.113123,12.63591 -9.598654,19.19728 1.669538,-6.5295 -0.956746,-13.238 6.966767,-19.50691 z"
     id="path1301" />
  <path
     inkscape:connector-curvature="0"
     style="display:inline;fill:#ffffff;fill-opacity:1;stroke:#8a8a8a;stroke-width:0.43416956;stroke-linecap:butt;stroke-linejoin:miter;stroke-miterlimit:4;stroke-dasharray:none;stroke-opacity:1"
     d="m 50.265285,141.59386 2.112604,-1.59989 c -2.317089,9.50517 3.623284,14.04047 6.375952,20.49431 -3.319087,-5.8656 -9.860319,-8.88445 -8.488556,-18.89442 z"
     id="path1303" />
  <path
     inkscape:connector-curvature="0"
     id="path1305"
     d="m 148.76097,164.69098 1.46722,-2.20679 c -9.34507,2.89597 -14.23634,-2.75493 -20.84692,-5.10638 6.0582,2.95291 9.47276,9.29657 19.3797,7.31317 z"
     style="display:inline;fill:#ffffff;fill-opacity:1;stroke:#8a8a8a;stroke-width:0.43416956;stroke-linecap:butt;stroke-linejoin:miter;stroke-miterlimit:4;stroke-dasharray:none;stroke-opacity:1" />
  <path
     inkscape:connector-curvature="0"
     style="display:inline;fill:#ffffff;fill-opacity:1;stroke:#8a8a8a;stroke-width:0.29057103;stroke-linecap:butt;stroke-linejoin:miter;stroke-miterlimit:4;stroke-dasharray:none;stroke-opacity:1"
     d="m 140.31761,94.22401 1.64148,0.671619 c -6.26456,1.904694 -6.85237,6.871871 -9.63163,10.656831 2.24741,-3.91072 1.75703,-8.707229 7.99015,-11.32845 z"
     id="path1307" />
  <path
     inkscape:connector-curvature="0"
     style="display:inline;fill:#ffffff;fill-opacity:1;stroke:#8a8a8a;stroke-width:0.30749813;stroke-linecap:butt;stroke-linejoin:miter;stroke-miterlimit:4;stroke-dasharray:none;stroke-opacity:1"
     d="m 178.47997,128.93962 1.2929,-1.36052 c -6.873,0.87997 -9.59578,-3.6593 -13.92072,-6.10654 3.86616,2.79943 5.47417,7.64179 12.62782,7.46706 z"
     id="path1309" />
  <path
     inkscape:connector-curvature="0"
     id="path833-2-3"
     d="m 52.90905,193.27158 9.289001,11.76607 C 81.605416,141.79464 122.03504,116.74358 175.67877,111.52832 l -0.15483,-1.23853 c -48.63263,3.03162 -96.570875,29.80388 -122.614873,82.98179 z"
     style="display:inline;fill:#ffffff;fill-opacity:1;stroke:#8a8a8a;stroke-width:0.43348691px;stroke-linecap:butt;stroke-linejoin:miter;stroke-opacity:1" />
</svg>
