<?xml version="1.0" encoding="UTF-8" standalone="no"?>
<svg
   xmlns:dc="http://purl.org/dc/elements/1.1/"
   xmlns:cc="http://creativecommons.org/ns#"
   xmlns:rdf="http://www.w3.org/1999/02/22-rdf-syntax-ns#"
   xmlns:svg="http://www.w3.org/2000/svg"
   xmlns="http://www.w3.org/2000/svg"
   id="svg2134"
   version="1.1"
   viewBox="0 0 210 297"
   height="297mm"
   width="210mm">
  <defs
     id="defs2128" />
  <metadata
     id="metadata2131">
    <rdf:RDF>
      <cc:Work
         rdf:about="">
        <dc:format>image/svg+xml</dc:format>
        <dc:type
           rdf:resource="http://purl.org/dc/dcmitype/StillImage" />
        <dc:title></dc:title>
      </cc:Work>
    </rdf:RDF>
  </metadata>
  <g
     id="layer1">
    <path
       id="path835-8-2"
       d="m 149.48118,126.2269 c -3.05607,0.0298 -6.61546,0.67202 -9.67898,1.09709 l 0.18189,0.0744 c -3.82362,1.16255 -4.18235,4.19433 -5.8787,6.50452 1.22107,-2.12482 1.12045,-4.6775 3.76669,-6.34122 -0.33323,0.0345 -0.65982,0.0656 -0.97101,0.0873 -9.25304,0.64688 -19.74386,0.83569 -28.57708,3.86798 -2.9881,5.29492 -0.45203,9.54006 -0.22168,14.22342 -0.72149,-4.44465 -3.97086,-7.9096 -1.48829,-13.59555 -3.62344,1.43952 -6.919516,3.42142 -9.670206,6.19497 -1.31777,1.32873 -2.49953,2.86127 -3.52743,4.52996 -1.1622,5.53756 2.33553,8.2709 3.97753,12.12071 -1.8131,-3.20419 -5.19871,-5.01931 -5.29011,-9.74463 -3.06328,6.20916 -4.09835,13.74636 -2.10892,19.95434 0.65619,2.04761 2.8006,3.98416 4.94492,4.1429 7.506016,0.55564 14.083986,-4.72519 19.976566,-10.29446 -6.07864,0.81056 -7.91923,-3.16963 -11.49027,-5.19349 3.93804,1.68277 6.70421,5.3104 12.50674,3.90003 l -0.8883,1.17098 c 1.87253,-1.77406 3.67775,-3.57292 5.41929,-5.21828 3.58721,-3.38911 7.21177,-7.08503 11.48457,-10.57249 -5.1954,0.0932 -7.48366,-3.54227 -11.1957,-5.35161 4.22892,1.50427 7.44969,4.94363 12.99043,3.93051 2.22562,-1.70562 4.63191,-3.34255 7.30032,-4.84466 1.83551,-1.03325 5.09887,-1.54414 8.16436,-2.16938 -2.81821,-0.6581 -3.82921,-2.95098 -5.79862,-4.37699 2.63977,1.49369 4.30162,4.264 8.49665,3.7269 l -0.0372,0.0393 c 2.90114,-0.77907 5.06536,-1.88687 4.67673,-4.03489 -0.55059,-3.04295 -3.45543,-3.86281 -7.06418,-3.82768 z"
       style="display:inline;fill:#ffffff;fill-opacity:1;stroke:#000000;stroke-width:0.26458332px;stroke-linecap:butt;stroke-linejoin:miter;stroke-opacity:1" />
    <path
       id="path855-1-9"
       d="m 80.068084,130.82112 1.6064,0.18899 c -5.03888,3.20439 -4.34157,7.71246 -5.85864,11.71726 1.01902,-3.98535 -0.58396,-8.07995 4.25224,-11.90625 z"
       style="display:inline;fill:#ffffff;fill-opacity:1;stroke:none;stroke-width:0.26499999;stroke-linecap:butt;stroke-linejoin:miter;stroke-miterlimit:4;stroke-dasharray:none;stroke-opacity:1" />
    <path
       id="path859-3-6"
       d="m 78.605734,147.61567 1.28945,-0.97651 c -1.41426,5.80158 2.21151,8.56975 3.89163,12.50892 -2.02584,-3.58013 -6.01835,-5.42272 -5.18108,-11.53241 z"
       style="display:inline;fill:#ffffff;fill-opacity:1;stroke:none;stroke-width:0.26499999;stroke-linecap:butt;stroke-linejoin:miter;stroke-miterlimit:4;stroke-dasharray:none;stroke-opacity:1" />
    <path
       style="display:inline;fill:#ffffff;fill-opacity:1;stroke:none;stroke-width:0.26499999;stroke-linecap:butt;stroke-linejoin:miter;stroke-miterlimit:4;stroke-dasharray:none;stroke-opacity:1"
       d="m 138.72362,161.71324 0.89553,-1.34694 c -5.70386,1.76759 -8.6893,-1.6815 -12.72414,-3.11673 3.69769,1.80234 5.7818,5.67426 11.82861,4.46367 z"
       id="path868-5-5" />
    <path
       id="path876-1-5"
       d="m 133.57012,118.70298 1.0019,0.40993 c -3.82364,1.16255 -4.18242,4.19432 -5.87877,6.50451 1.37173,-2.38695 1.07242,-5.31455 4.87687,-6.91444 z"
       style="display:inline;fill:#ffffff;fill-opacity:1;stroke:none;stroke-width:0.1773531;stroke-linecap:butt;stroke-linejoin:miter;stroke-miterlimit:4;stroke-dasharray:none;stroke-opacity:1" />
    <path
       id="path882-9-2"
       d="m 156.86292,139.89202 0.78914,-0.83041 c -4.19501,0.5371 -5.85689,-2.23349 -8.49666,-3.72719 2.35975,1.70866 3.34122,4.66425 7.70752,4.5576 z"
       style="display:inline;fill:#ffffff;fill-opacity:1;stroke:none;stroke-width:0.18768473;stroke-linecap:butt;stroke-linejoin:miter;stroke-miterlimit:4;stroke-dasharray:none;stroke-opacity:1" />
    <path
       style="display:inline;fill:#ffffff;fill-opacity:1;stroke:none;stroke-width:0.26499999;stroke-linecap:butt;stroke-linejoin:miter;stroke-miterlimit:4;stroke-dasharray:none;stroke-opacity:1"
       d="m 80.068084,130.82112 1.6064,0.18899 c -5.03888,3.20439 -4.34157,7.71246 -5.85864,11.71726 1.01902,-3.98535 -0.58396,-8.07995 4.25224,-11.90625 z"
       id="path1003-1" />
    <path
       style="display:inline;fill:#ffffff;fill-opacity:1;stroke:none;stroke-width:0.26499999;stroke-linecap:butt;stroke-linejoin:miter;stroke-miterlimit:4;stroke-dasharray:none;stroke-opacity:1"
       d="m 78.605734,147.61567 1.28945,-0.97651 c -1.41426,5.80158 2.21151,8.56975 3.89163,12.50892 -2.02584,-3.58013 -6.01835,-5.42272 -5.18108,-11.53241 z"
       id="path1005-9" />
    <path
       id="path1007-9"
       d="m 138.72362,161.71324 0.89553,-1.34694 c -5.70386,1.76759 -8.6893,-1.6815 -12.72414,-3.11673 3.69769,1.80234 5.7818,5.67426 11.82861,4.46367 z"
       style="display:inline;fill:#ffffff;fill-opacity:1;stroke:none;stroke-width:0.26499999;stroke-linecap:butt;stroke-linejoin:miter;stroke-miterlimit:4;stroke-dasharray:none;stroke-opacity:1" />
    <path
       style="display:inline;fill:#ffffff;fill-opacity:1;stroke:none;stroke-width:0.1773531;stroke-linecap:butt;stroke-linejoin:miter;stroke-miterlimit:4;stroke-dasharray:none;stroke-opacity:1"
       d="m 133.57012,118.70298 1.0019,0.40993 c -3.82364,1.16255 -4.18242,4.19432 -5.87877,6.50451 1.37173,-2.38695 1.07242,-5.31455 4.87687,-6.91444 z"
       id="path1009-3" />
    <path
       style="display:inline;fill:#ffffff;fill-opacity:1;stroke:none;stroke-width:0.18768473;stroke-linecap:butt;stroke-linejoin:miter;stroke-miterlimit:4;stroke-dasharray:none;stroke-opacity:1"
       d="m 156.86292,139.89202 0.78914,-0.83041 c -4.19501,0.5371 -5.85689,-2.23349 -8.49666,-3.72719 2.35975,1.70866 3.34122,4.66425 7.70752,4.5576 z"
       id="path1011-0" />
    <path
       style="display:inline;fill:#ffffff;fill-opacity:1;stroke:none;stroke-width:0.26499999;stroke-linecap:butt;stroke-linejoin:miter;stroke-miterlimit:4;stroke-dasharray:none;stroke-opacity:1"
       d="m 80.068084,130.82112 1.6064,0.18899 c -5.03888,3.20439 -4.34157,7.71246 -5.85864,11.71726 1.01902,-3.98535 -0.58396,-8.07995 4.25224,-11.90625 z"
       id="path1245" />
    <path
       style="display:inline;fill:#ffffff;fill-opacity:1;stroke:none;stroke-width:0.26499999;stroke-linecap:butt;stroke-linejoin:miter;stroke-miterlimit:4;stroke-dasharray:none;stroke-opacity:1"
       d="m 78.605734,147.61567 1.28945,-0.97651 c -1.41426,5.80158 2.21151,8.56975 3.89163,12.50892 -2.02584,-3.58013 -6.01835,-5.42272 -5.18108,-11.53241 z"
       id="path1247" />
    <path
       id="path1249"
       d="m 138.72362,161.71324 0.89553,-1.34694 c -5.70386,1.76759 -8.6893,-1.6815 -12.72414,-3.11673 3.69769,1.80234 5.7818,5.67426 11.82861,4.46367 z"
       style="display:inline;fill:#ffffff;fill-opacity:1;stroke:none;stroke-width:0.26499999;stroke-linecap:butt;stroke-linejoin:miter;stroke-miterlimit:4;stroke-dasharray:none;stroke-opacity:1" />
    <path
       style="display:inline;fill:#ffffff;fill-opacity:1;stroke:none;stroke-width:0.1773531;stroke-linecap:butt;stroke-linejoin:miter;stroke-miterlimit:4;stroke-dasharray:none;stroke-opacity:1"
       d="m 133.57012,118.70298 1.0019,0.40993 c -3.82364,1.16255 -4.18242,4.19432 -5.87877,6.50451 1.37173,-2.38695 1.07242,-5.31455 4.87687,-6.91444 z"
       id="path1251" />
    <path
       style="display:inline;fill:#ffffff;fill-opacity:1;stroke:none;stroke-width:0.18768473;stroke-linecap:butt;stroke-linejoin:miter;stroke-miterlimit:4;stroke-dasharray:none;stroke-opacity:1"
       d="m 156.86292,139.89202 0.78914,-0.83041 c -4.19501,0.5371 -5.85689,-2.23349 -8.49666,-3.72719 2.35975,1.70866 3.34122,4.66425 7.70752,4.5576 z"
       id="path1253" />
    <path
       id="path1301"
       d="m 80.068084,130.82112 1.6064,0.18899 c -5.03888,3.20439 -4.34157,7.71246 -5.85864,11.71726 1.01902,-3.98535 -0.58396,-8.07995 4.25224,-11.90625 z"
       style="display:inline;fill:#ffffff;fill-opacity:1;stroke:#1d1d1d;stroke-width:0.26499999;stroke-linecap:butt;stroke-linejoin:miter;stroke-miterlimit:4;stroke-dasharray:none;stroke-opacity:1" />
    <path
       id="path1303"
       d="m 78.605734,147.61567 1.28945,-0.97651 c -1.41426,5.80158 2.21151,8.56975 3.89163,12.50892 -2.02584,-3.58013 -6.01835,-5.42272 -5.18108,-11.53241 z"
       style="display:inline;fill:#ffffff;fill-opacity:1;stroke:#1d1d1d;stroke-width:0.26499999;stroke-linecap:butt;stroke-linejoin:miter;stroke-miterlimit:4;stroke-dasharray:none;stroke-opacity:1" />
    <path
       style="display:inline;fill:#ffffff;fill-opacity:1;stroke:#1d1d1d;stroke-width:0.26499999;stroke-linecap:butt;stroke-linejoin:miter;stroke-miterlimit:4;stroke-dasharray:none;stroke-opacity:1"
       d="m 138.72362,161.71324 0.89553,-1.34694 c -5.70386,1.76759 -8.6893,-1.6815 -12.72414,-3.11673 3.69769,1.80234 5.7818,5.67426 11.82861,4.46367 z"
       id="path1305" />
    <path
       id="path1307"
       d="m 133.57012,118.70298 1.0019,0.40993 c -3.82364,1.16255 -4.18242,4.19432 -5.87877,6.50451 1.37173,-2.38695 1.07242,-5.31455 4.87687,-6.91444 z"
       style="display:inline;fill:#ffffff;fill-opacity:1;stroke:#1d1d1d;stroke-width:0.1773531;stroke-linecap:butt;stroke-linejoin:miter;stroke-miterlimit:4;stroke-dasharray:none;stroke-opacity:1" />
    <path
       id="path1309"
       d="m 156.86292,139.89202 0.78914,-0.83041 c -4.19501,0.5371 -5.85689,-2.23349 -8.49666,-3.72719 2.35975,1.70866 3.34122,4.66425 7.70752,4.5576 z"
       style="display:inline;fill:#ffffff;fill-opacity:1;stroke:#1d1d1d;stroke-width:0.18768473;stroke-linecap:butt;stroke-linejoin:miter;stroke-miterlimit:4;stroke-dasharray:none;stroke-opacity:1" />
    <path
       style="display:inline;fill:#ffffff;fill-opacity:1;stroke:#000000;stroke-width:0.26458332px;stroke-linecap:butt;stroke-linejoin:miter;stroke-opacity:1"
       d="m 80.219384,179.15771 5.66964,7.18155 c 11.84549,-38.60104 36.522136,-53.89122 69.264156,-57.07441 l -0.0945,-0.75595 c -29.68344,1.85038 -58.943056,18.19111 -74.839286,50.64881 z"
       id="path833-2-3" />
  </g>
</svg>
