<?xml version="1.0" encoding="UTF-8" standalone="no"?>
<!-- Created with Inkscape (http://www.inkscape.org/) -->

<svg
   xmlns:dc="http://purl.org/dc/elements/1.1/"
   xmlns:cc="http://creativecommons.org/ns#"
   xmlns:rdf="http://www.w3.org/1999/02/22-rdf-syntax-ns#"
   xmlns:svg="http://www.w3.org/2000/svg"
   xmlns="http://www.w3.org/2000/svg"
   xmlns:sodipodi="http://sodipodi.sourceforge.net/DTD/sodipodi-0.dtd"
   xmlns:inkscape="http://www.inkscape.org/namespaces/inkscape"
   width="210mm"
   height="297mm"
   viewBox="0 0 210 297"
   version="1.1"
   id="svg1107"
   inkscape:version="0.92.4 (5da689c313, 2019-01-14)"
   sodipodi:docname="symbols min.svg">
  <defs
     id="defs1101" />
  <sodipodi:namedview
     id="base"
     pagecolor="#ffffff"
     bordercolor="#666666"
     borderopacity="1.0"
     inkscape:pageopacity="0.0"
     inkscape:pageshadow="2"
     inkscape:zoom="1.979899"
     inkscape:cx="257.78333"
     inkscape:cy="666.41301"
     inkscape:document-units="mm"
     inkscape:current-layer="layer1"
     showgrid="false"
     inkscape:window-width="1780"
     inkscape:window-height="1051"
     inkscape:window-x="-9"
     inkscape:window-y="-9"
     inkscape:window-maximized="1" />
  <metadata
     id="metadata1104">
    <rdf:RDF>
      <cc:Work
         rdf:about="">
        <dc:format>image/svg+xml</dc:format>
        <dc:type
           rdf:resource="http://purl.org/dc/dcmitype/StillImage" />
        <dc:title></dc:title>
      </cc:Work>
    </rdf:RDF>
  </metadata>
  <g
     inkscape:groupmode="layer"
     id="layer2"
     inkscape:label="bg"
     style="display:inline"
     sodipodi:insensitive="true">
    <rect
       style="fill:#a2a2df;fill-opacity:1;fill-rule:evenodd;stroke-width:0.28843781"
       id="rect1730"
       width="212.21199"
       height="302.01459"
       x="-3.7117715e-07"
       y="1.3999023"
       ry="1.0965592" />
  </g>
  <g
     inkscape:label="Layer 1"
     inkscape:groupmode="layer"
     id="layer1">
    <path
       sodipodi:nodetypes="csssssc"
       inkscape:connector-curvature="0"
       id="path1313-6"
       d="m 121.4298,208.93015 c 0,0 4.39964,5.84526 7.47405,5.50171 4.41255,-0.49302 4.28461,-9.86133 8.71975,-10.06921 4.44925,-0.20854 5.19996,9.20611 9.65399,9.23876 4.67629,0.0343 5.60241,-9.68607 10.27684,-9.55018 4.55007,0.1323 4.90593,9.53777 9.44638,9.86162 2.63059,0.1876 6.22838,-4.87893 6.22838,-4.87893"
       style="display:inline;fill:none;stroke:#000000;stroke-width:1.85792208;stroke-linecap:butt;stroke-linejoin:miter;stroke-miterlimit:4;stroke-dasharray:none;stroke-opacity:1" />
    <g
       id="g2126"
       transform="matrix(0.40025002,0,0,0.54542875,19.704505,42.309798)"
       style="display:inline;fill:#000000;fill-opacity:1;stroke:#ffffff;stroke-width:0.18192159;stroke-miterlimit:4;stroke-dasharray:none;stroke-opacity:1">
      <path
         sodipodi:nodetypes="csccc"
         inkscape:connector-curvature="0"
         id="path2122"
         d="m 24.261959,102.68651 -6.924376,0.11846 c -1.461267,0 -2.645852,7.53067 -2.645833,16.82015 2.6e-5,9.28929 1.184597,16.81965 2.645833,16.81965 l 7.018257,-0.0728"
         style="fill:#000000;fill-opacity:1;fill-rule:evenodd;stroke:#ffffff;stroke-width:0.18192159;stroke-miterlimit:4;stroke-dasharray:none;stroke-opacity:1" />
      <ellipse
         ry="16.819941"
         rx="2.6458333"
         cy="119.5304"
         cx="24.308374"
         id="ellipse2124"
         style="fill:#000000;fill-opacity:1;fill-rule:evenodd;stroke:#ffffff;stroke-width:0.18192159;stroke-miterlimit:4;stroke-dasharray:none;stroke-opacity:1" />
    </g>
    <g
       style="display:inline;fill:#000000;fill-opacity:1;stroke:#ffffff;stroke-width:0.29256892;stroke-miterlimit:4;stroke-dasharray:none;stroke-opacity:1"
       transform="matrix(0.5416768,0,0,0.73815384,20.370456,19.771978)"
       id="g2120">
      <path
         style="fill:#000000;fill-opacity:1;fill-rule:evenodd;stroke:#ffffff;stroke-width:0.29256892;stroke-miterlimit:4;stroke-dasharray:none;stroke-opacity:1"
         d="m 24.261959,102.68651 -6.924376,0.11846 c -1.461267,0 -2.645852,7.53067 -2.645833,16.82015 2.6e-5,9.28929 1.184597,16.81965 2.645833,16.81965 l 7.018257,-0.0728"
         id="path2116"
         inkscape:connector-curvature="0"
         sodipodi:nodetypes="csccc" />
      <ellipse
         style="fill:#000000;fill-opacity:1;fill-rule:evenodd;stroke:#ffffff;stroke-width:0.29256892;stroke-miterlimit:4;stroke-dasharray:none;stroke-opacity:1"
         id="ellipse2118"
         cx="24.308374"
         cy="119.5304"
         rx="2.6458333"
         ry="16.819941" />
    </g>
    <g
       id="g2114"
       transform="matrix(0.72006111,0,0,0.98124174,21.588521,-10.226422)"
       style="display:inline;fill:#000000;fill-opacity:1;stroke:#ffffff;stroke-width:0.2522105;stroke-miterlimit:4;stroke-dasharray:none;stroke-opacity:1">
      <path
         sodipodi:nodetypes="csccc"
         inkscape:connector-curvature="0"
         id="path2110"
         d="m 24.261959,102.68651 -6.924376,0.11846 c -1.461267,0 -2.645852,7.53067 -2.645833,16.82015 2.6e-5,9.28929 1.184597,16.81965 2.645833,16.81965 l 7.018257,-0.0728"
         style="fill:#000000;fill-opacity:1;fill-rule:evenodd;stroke:#ffffff;stroke-width:0.2522105;stroke-miterlimit:4;stroke-dasharray:none;stroke-opacity:1" />
      <ellipse
         ry="16.819941"
         rx="2.6458333"
         cy="119.5304"
         cx="24.308374"
         id="ellipse2112"
         style="fill:#000000;fill-opacity:1;fill-rule:evenodd;stroke:#ffffff;stroke-width:0.2522105;stroke-miterlimit:4;stroke-dasharray:none;stroke-opacity:1" />
    </g>
    <path
       style="display:inline;fill:#000000;fill-opacity:1;stroke:#ffffff;stroke-width:0.212;stroke-linecap:butt;stroke-linejoin:miter;stroke-miterlimit:4;stroke-dasharray:none;stroke-opacity:1"
       d="m 63.423853,103.7131 -24.154734,0.2952 c -0.44287,1.54929 -0.689009,4.39975 0.02814,6.51216 l 24.041489,-0.66202 z"
       id="path2062"
       inkscape:connector-curvature="0"
       sodipodi:nodetypes="ccccc" />
    <g
       style="display:inline;fill:#000000;fill-opacity:1;stroke:#ffffff;stroke-width:0.2522105;stroke-miterlimit:4;stroke-dasharray:none;stroke-opacity:1"
       transform="matrix(0.72006111,0,0,0.98124174,48.662969,-10.483072)"
       id="g2068">
      <path
         style="fill:#000000;fill-opacity:1;fill-rule:evenodd;stroke:#ffffff;stroke-width:0.2522105;stroke-miterlimit:4;stroke-dasharray:none;stroke-opacity:1"
         d="m 24.261959,102.68651 -6.924376,0.11846 c -1.461267,0 -2.645852,7.53067 -2.645833,16.82015 2.6e-5,9.28929 1.184597,16.81965 2.645833,16.81965 l 7.018257,-0.0728"
         id="path2064"
         inkscape:connector-curvature="0"
         sodipodi:nodetypes="csccc" />
      <ellipse
         style="fill:#000000;fill-opacity:1;fill-rule:evenodd;stroke:#ffffff;stroke-width:0.2522105;stroke-miterlimit:4;stroke-dasharray:none;stroke-opacity:1"
         id="ellipse2066"
         cx="24.308374"
         cy="119.5304"
         rx="2.6458333"
         ry="16.819941" />
    </g>
    <g
       id="g2084"
       transform="matrix(0.5416768,0,0,0.73815384,57.77347,18.767458)"
       style="display:inline;fill:#000000;fill-opacity:1;stroke:#ffffff;stroke-width:0.29256892;stroke-miterlimit:4;stroke-dasharray:none;stroke-opacity:1">
      <path
         sodipodi:nodetypes="csccc"
         inkscape:connector-curvature="0"
         id="path2080"
         d="m 24.261959,102.68651 -6.924376,0.11846 c -1.461267,0 -2.645852,7.53067 -2.645833,16.82015 2.6e-5,9.28929 1.184597,16.81965 2.645833,16.81965 l 7.018257,-0.0728"
         style="fill:#000000;fill-opacity:1;fill-rule:evenodd;stroke:#ffffff;stroke-width:0.29256892;stroke-miterlimit:4;stroke-dasharray:none;stroke-opacity:1" />
      <ellipse
         ry="16.819941"
         rx="2.6458333"
         cy="119.5304"
         cx="24.308374"
         id="ellipse2082"
         style="fill:#000000;fill-opacity:1;fill-rule:evenodd;stroke:#ffffff;stroke-width:0.29256892;stroke-miterlimit:4;stroke-dasharray:none;stroke-opacity:1" />
    </g>
    <g
       style="display:inline;fill:#000000;fill-opacity:1;stroke:#ffffff;stroke-width:0.60918874;stroke-miterlimit:4;stroke-dasharray:none;stroke-opacity:1"
       transform="matrix(0.40025002,0,0,0.54542875,64.979945,42.128318)"
       id="g2090">
      <path
         style="fill:#000000;fill-opacity:1;fill-rule:evenodd;stroke:#ffffff;stroke-width:0.60918874;stroke-miterlimit:4;stroke-dasharray:none;stroke-opacity:1"
         d="m 24.261959,102.68651 -6.924376,0.11846 c -1.461267,0 -2.645852,7.53067 -2.645833,16.82015 2.6e-5,9.28929 1.184597,16.81965 2.645833,16.81965 l 7.018257,-0.0728"
         id="path2086"
         inkscape:connector-curvature="0"
         sodipodi:nodetypes="csccc" />
      <ellipse
         style="fill:#000000;fill-opacity:1;fill-rule:evenodd;stroke:#ffffff;stroke-width:0.60918874;stroke-miterlimit:4;stroke-dasharray:none;stroke-opacity:1"
         id="ellipse2088"
         cx="24.308374"
         cy="119.5304"
         rx="2.6458333"
         ry="16.819941" />
    </g>
    <path
       sodipodi:nodetypes="ccccc"
       inkscape:connector-curvature="0"
       id="path2076"
       d="m 78.204707,104.27494 -2.98277,-0.21806 c -0.44287,1.54929 -0.689018,4.39975 0.0281,6.51216 l 2.86952,-0.14876 z"
       style="display:inline;fill:#000000;fill-opacity:1;stroke:#ffffff;stroke-width:0.212;stroke-linecap:butt;stroke-linejoin:miter;stroke-miterlimit:4;stroke-dasharray:none;stroke-opacity:1" />
    <ellipse
       ry="2.8565032"
       rx="0.574036"
       cy="107.2944"
       cx="78.003075"
       id="ellipse2078"
       style="display:inline;fill:#000000;fill-opacity:1;fill-rule:evenodd;stroke:#ffffff;stroke-width:0.21699999;stroke-miterlimit:4;stroke-dasharray:none;stroke-opacity:1" />
    <path
       sodipodi:nodetypes="ccccccccccccccccccccccc"
       inkscape:connector-curvature="0"
       id="path1311-6"
       d="m 22.192171,209.68751 v 0 l 6.327496,0.0695 v 6.46657 h 6.450559 v -6.5361 h 5.701703 v -6.53611 h 6.992578 v 6.25797 h 6.397059 v 6.81424 h 7.509553 v -6.5361 h 5.562643 v -6.53611 h 7.231433 v 6.1189 h 5.145435 v 6.67518 h 7.142991 l 0.150996,-6.42686 6.0101,0.0814"
       style="display:inline;fill:none;stroke:#000000;stroke-width:2.20753694;stroke-linecap:butt;stroke-linejoin:miter;stroke-miterlimit:4;stroke-dasharray:none;stroke-opacity:1" />
    <path
       style="display:inline;fill:#ffffff;fill-opacity:1;stroke:#000000;stroke-width:0.26458332px;stroke-linecap:butt;stroke-linejoin:miter;stroke-opacity:1"
       d="m 180.47523,85.783445 c -3.05607,0.0298 -6.61546,0.67202 -9.67898,1.09709 l 0.18189,0.0744 c -3.82362,1.162549 -4.18235,4.194326 -5.8787,6.504516 1.22107,-2.12482 1.12045,-4.677496 3.76669,-6.341216 -0.33323,0.0345 -0.65982,0.0656 -0.97101,0.0873 -9.25304,0.64688 -19.74386,0.83569 -28.57708,3.867976 -2.9881,5.29492 -0.45203,9.540059 -0.22168,14.223419 -0.72149,-4.44465 -3.97086,-7.909599 -1.48829,-13.595549 -3.62344,1.43952 -6.91952,3.42142 -9.67021,6.19497 -1.31777,1.32873 -2.49953,2.861269 -3.52743,4.529959 -1.1622,5.53756 2.33553,8.2709 3.97753,12.12071 -1.8131,-3.20419 -5.19871,-5.01931 -5.29011,-9.74463 -3.06328,6.20916 -4.09835,13.74636 -2.10892,19.95434 0.65619,2.04761 2.8006,3.98416 4.94492,4.1429 7.50602,0.55564 14.08399,-4.72519 19.97657,-10.29446 -6.07864,0.81056 -7.91923,-3.16963 -11.49027,-5.19349 3.93804,1.68277 6.70421,5.3104 12.50674,3.90003 l -0.8883,1.17098 c 1.87253,-1.77406 3.67775,-3.57292 5.41929,-5.21828 3.58721,-3.38911 7.21177,-7.08503 11.48457,-10.57249 -5.1954,0.0932 -7.48366,-3.542269 -11.1957,-5.351609 4.22892,1.50427 7.44969,4.943629 12.99043,3.930509 2.22562,-1.705619 4.63191,-3.342549 7.30032,-4.844659 1.83551,-1.03325 5.09887,-1.54414 8.16436,-2.16938 -2.81821,-0.6581 -3.82921,-2.95098 -5.79862,-4.376986 2.63977,1.493686 4.30162,4.263996 8.49665,3.726896 l -0.0372,0.0393 c 2.90114,-0.77907 5.06536,-1.88687 4.67673,-4.034886 -0.55059,-3.04295 -3.45543,-3.86281 -7.06418,-3.82768 z"
       id="path835-8-2"
       inkscape:connector-curvature="0" />
    <path
       style="display:inline;fill:#ffffff;fill-opacity:1;stroke:none;stroke-width:0.26499999;stroke-linecap:butt;stroke-linejoin:miter;stroke-miterlimit:4;stroke-dasharray:none;stroke-opacity:1"
       d="m 111.06213,90.377665 1.6064,0.18899 c -5.03888,3.204386 -4.34157,7.712456 -5.85864,11.717255 1.01902,-3.985349 -0.58396,-8.079949 4.25224,-11.906245 z"
       id="path855-1-9"
       inkscape:connector-curvature="0"
       sodipodi:nodetypes="cccc" />
    <path
       style="display:inline;fill:#ffffff;fill-opacity:1;stroke:none;stroke-width:0.26499999;stroke-linecap:butt;stroke-linejoin:miter;stroke-miterlimit:4;stroke-dasharray:none;stroke-opacity:1"
       d="m 109.59978,107.17221 1.28945,-0.97651 c -1.41426,5.80158 2.21151,8.56975 3.89163,12.50892 -2.02584,-3.58013 -6.01835,-5.42272 -5.18108,-11.53241 z"
       id="path859-3-6"
       inkscape:connector-curvature="0"
       sodipodi:nodetypes="cccc" />
    <path
       sodipodi:nodetypes="cccc"
       inkscape:connector-curvature="0"
       id="path868-5-5"
       d="m 169.71767,121.26978 0.89553,-1.34694 c -5.70386,1.76759 -8.6893,-1.6815 -12.72414,-3.11673 3.69769,1.80234 5.7818,5.67426 11.82861,4.46367 z"
       style="display:inline;fill:#ffffff;fill-opacity:1;stroke:none;stroke-width:0.26499999;stroke-linecap:butt;stroke-linejoin:miter;stroke-miterlimit:4;stroke-dasharray:none;stroke-opacity:1" />
    <path
       style="display:inline;fill:#ffffff;fill-opacity:1;stroke:none;stroke-width:0.1773531;stroke-linecap:butt;stroke-linejoin:miter;stroke-miterlimit:4;stroke-dasharray:none;stroke-opacity:1"
       d="m 164.56417,78.259524 1.0019,0.40993 c -3.82364,1.16255 -4.18242,4.194321 -5.87877,6.50451 1.37173,-2.386949 1.07242,-5.31455 4.87687,-6.91444 z"
       id="path876-1-5"
       inkscape:connector-curvature="0"
       sodipodi:nodetypes="cccc" />
    <path
       style="display:inline;fill:#ffffff;fill-opacity:1;stroke:none;stroke-width:0.18768473;stroke-linecap:butt;stroke-linejoin:miter;stroke-miterlimit:4;stroke-dasharray:none;stroke-opacity:1"
       d="m 187.85697,99.448561 0.78914,-0.83041 c -4.19501,0.5371 -5.85689,-2.23349 -8.49666,-3.72719 2.35975,1.70866 3.34122,4.66425 7.70752,4.5576 z"
       id="path882-9-2"
       inkscape:connector-curvature="0"
       sodipodi:nodetypes="cccc" />
    <path
       sodipodi:nodetypes="cccc"
       inkscape:connector-curvature="0"
       id="path1003-1"
       d="m 111.06213,90.377665 1.6064,0.18899 c -5.03888,3.204386 -4.34157,7.712456 -5.85864,11.717255 1.01902,-3.985349 -0.58396,-8.079949 4.25224,-11.906245 z"
       style="display:inline;fill:#ffffff;fill-opacity:1;stroke:none;stroke-width:0.26499999;stroke-linecap:butt;stroke-linejoin:miter;stroke-miterlimit:4;stroke-dasharray:none;stroke-opacity:1" />
    <path
       sodipodi:nodetypes="cccc"
       inkscape:connector-curvature="0"
       id="path1005-9"
       d="m 109.59978,107.17221 1.28945,-0.97651 c -1.41426,5.80158 2.21151,8.56975 3.89163,12.50892 -2.02584,-3.58013 -6.01835,-5.42272 -5.18108,-11.53241 z"
       style="display:inline;fill:#ffffff;fill-opacity:1;stroke:none;stroke-width:0.26499999;stroke-linecap:butt;stroke-linejoin:miter;stroke-miterlimit:4;stroke-dasharray:none;stroke-opacity:1" />
    <path
       style="display:inline;fill:#ffffff;fill-opacity:1;stroke:none;stroke-width:0.26499999;stroke-linecap:butt;stroke-linejoin:miter;stroke-miterlimit:4;stroke-dasharray:none;stroke-opacity:1"
       d="m 169.71767,121.26978 0.89553,-1.34694 c -5.70386,1.76759 -8.6893,-1.6815 -12.72414,-3.11673 3.69769,1.80234 5.7818,5.67426 11.82861,4.46367 z"
       id="path1007-9"
       inkscape:connector-curvature="0"
       sodipodi:nodetypes="cccc" />
    <path
       sodipodi:nodetypes="cccc"
       inkscape:connector-curvature="0"
       id="path1009-3"
       d="m 164.56417,78.259524 1.0019,0.40993 c -3.82364,1.16255 -4.18242,4.194321 -5.87877,6.50451 1.37173,-2.386949 1.07242,-5.31455 4.87687,-6.91444 z"
       style="display:inline;fill:#ffffff;fill-opacity:1;stroke:none;stroke-width:0.1773531;stroke-linecap:butt;stroke-linejoin:miter;stroke-miterlimit:4;stroke-dasharray:none;stroke-opacity:1" />
    <path
       sodipodi:nodetypes="cccc"
       inkscape:connector-curvature="0"
       id="path1011-0"
       d="m 187.85697,99.448561 0.78914,-0.83041 c -4.19501,0.5371 -5.85689,-2.23349 -8.49666,-3.72719 2.35975,1.70866 3.34122,4.66425 7.70752,4.5576 z"
       style="display:inline;fill:#ffffff;fill-opacity:1;stroke:none;stroke-width:0.18768473;stroke-linecap:butt;stroke-linejoin:miter;stroke-miterlimit:4;stroke-dasharray:none;stroke-opacity:1" />
    <path
       sodipodi:nodetypes="cccc"
       inkscape:connector-curvature="0"
       id="path1245"
       d="m 111.06213,90.377665 1.6064,0.18899 c -5.03888,3.204386 -4.34157,7.712456 -5.85864,11.717255 1.01902,-3.985349 -0.58396,-8.079949 4.25224,-11.906245 z"
       style="display:inline;fill:#ffffff;fill-opacity:1;stroke:none;stroke-width:0.26499999;stroke-linecap:butt;stroke-linejoin:miter;stroke-miterlimit:4;stroke-dasharray:none;stroke-opacity:1" />
    <path
       sodipodi:nodetypes="cccc"
       inkscape:connector-curvature="0"
       id="path1247"
       d="m 109.59978,107.17221 1.28945,-0.97651 c -1.41426,5.80158 2.21151,8.56975 3.89163,12.50892 -2.02584,-3.58013 -6.01835,-5.42272 -5.18108,-11.53241 z"
       style="display:inline;fill:#ffffff;fill-opacity:1;stroke:none;stroke-width:0.26499999;stroke-linecap:butt;stroke-linejoin:miter;stroke-miterlimit:4;stroke-dasharray:none;stroke-opacity:1" />
    <path
       style="display:inline;fill:#ffffff;fill-opacity:1;stroke:none;stroke-width:0.26499999;stroke-linecap:butt;stroke-linejoin:miter;stroke-miterlimit:4;stroke-dasharray:none;stroke-opacity:1"
       d="m 169.71767,121.26978 0.89553,-1.34694 c -5.70386,1.76759 -8.6893,-1.6815 -12.72414,-3.11673 3.69769,1.80234 5.7818,5.67426 11.82861,4.46367 z"
       id="path1249"
       inkscape:connector-curvature="0"
       sodipodi:nodetypes="cccc" />
    <path
       sodipodi:nodetypes="cccc"
       inkscape:connector-curvature="0"
       id="path1251"
       d="m 164.56417,78.259524 1.0019,0.40993 c -3.82364,1.16255 -4.18242,4.194321 -5.87877,6.50451 1.37173,-2.386949 1.07242,-5.31455 4.87687,-6.91444 z"
       style="display:inline;fill:#ffffff;fill-opacity:1;stroke:none;stroke-width:0.1773531;stroke-linecap:butt;stroke-linejoin:miter;stroke-miterlimit:4;stroke-dasharray:none;stroke-opacity:1" />
    <path
       sodipodi:nodetypes="cccc"
       inkscape:connector-curvature="0"
       id="path1253"
       d="m 187.85697,99.448561 0.78914,-0.83041 c -4.19501,0.5371 -5.85689,-2.23349 -8.49666,-3.72719 2.35975,1.70866 3.34122,4.66425 7.70752,4.5576 z"
       style="display:inline;fill:#ffffff;fill-opacity:1;stroke:none;stroke-width:0.18768473;stroke-linecap:butt;stroke-linejoin:miter;stroke-miterlimit:4;stroke-dasharray:none;stroke-opacity:1" />
    <path
       style="display:inline;fill:#ffffff;fill-opacity:1;stroke:#1d1d1d;stroke-width:0.26499999;stroke-linecap:butt;stroke-linejoin:miter;stroke-miterlimit:4;stroke-dasharray:none;stroke-opacity:1"
       d="m 111.06213,90.377665 1.6064,0.18899 c -5.03888,3.204386 -4.34157,7.712456 -5.85864,11.717255 1.01902,-3.985349 -0.58396,-8.079949 4.25224,-11.906245 z"
       id="path1301"
       inkscape:connector-curvature="0"
       sodipodi:nodetypes="cccc" />
    <path
       style="display:inline;fill:#ffffff;fill-opacity:1;stroke:#1d1d1d;stroke-width:0.26499999;stroke-linecap:butt;stroke-linejoin:miter;stroke-miterlimit:4;stroke-dasharray:none;stroke-opacity:1"
       d="m 109.59978,107.17221 1.28945,-0.97651 c -1.41426,5.80158 2.21151,8.56975 3.89163,12.50892 -2.02584,-3.58013 -6.01835,-5.42272 -5.18108,-11.53241 z"
       id="path1303"
       inkscape:connector-curvature="0"
       sodipodi:nodetypes="cccc" />
    <path
       sodipodi:nodetypes="cccc"
       inkscape:connector-curvature="0"
       id="path1305"
       d="m 169.71767,121.26978 0.89553,-1.34694 c -5.70386,1.76759 -8.6893,-1.6815 -12.72414,-3.11673 3.69769,1.80234 5.7818,5.67426 11.82861,4.46367 z"
       style="display:inline;fill:#ffffff;fill-opacity:1;stroke:#1d1d1d;stroke-width:0.26499999;stroke-linecap:butt;stroke-linejoin:miter;stroke-miterlimit:4;stroke-dasharray:none;stroke-opacity:1" />
    <path
       style="display:inline;fill:#ffffff;fill-opacity:1;stroke:#1d1d1d;stroke-width:0.1773531;stroke-linecap:butt;stroke-linejoin:miter;stroke-miterlimit:4;stroke-dasharray:none;stroke-opacity:1"
       d="m 164.56417,78.259524 1.0019,0.40993 c -3.82364,1.16255 -4.18242,4.194321 -5.87877,6.50451 1.37173,-2.386949 1.07242,-5.31455 4.87687,-6.91444 z"
       id="path1307"
       inkscape:connector-curvature="0"
       sodipodi:nodetypes="cccc" />
    <path
       style="display:inline;fill:#ffffff;fill-opacity:1;stroke:#1d1d1d;stroke-width:0.18768473;stroke-linecap:butt;stroke-linejoin:miter;stroke-miterlimit:4;stroke-dasharray:none;stroke-opacity:1"
       d="m 187.85697,99.448561 0.78914,-0.83041 c -4.19501,0.5371 -5.85689,-2.23349 -8.49666,-3.72719 2.35975,1.70866 3.34122,4.66425 7.70752,4.5576 z"
       id="path1309"
       inkscape:connector-curvature="0"
       sodipodi:nodetypes="cccc" />
    <path
       sodipodi:nodetypes="ccccc"
       inkscape:connector-curvature="0"
       id="path833-2-3"
       d="m 111.21343,138.71426 5.66964,7.18154 c 11.84549,-38.60104 36.52214,-53.891219 69.26416,-57.074405 l -0.0945,-0.75595 c -29.68344,1.85038 -58.94306,18.191105 -74.83929,50.648815 z"
       style="display:inline;fill:#ffffff;fill-opacity:1;stroke:#000000;stroke-width:0.26458332px;stroke-linecap:butt;stroke-linejoin:miter;stroke-opacity:1" />
  </g>
</svg>
