<?xml version="1.0" encoding="UTF-8" standalone="no"?>
<svg
   xmlns:dc="http://purl.org/dc/elements/1.1/"
   xmlns:cc="http://creativecommons.org/ns#"
   xmlns:rdf="http://www.w3.org/1999/02/22-rdf-syntax-ns#"
   xmlns:svg="http://www.w3.org/2000/svg"
   xmlns="http://www.w3.org/2000/svg"
   id="svg2035"
   version="1.1"
   viewBox="0 0 210 297"
   height="297mm"
   width="210mm">
  <defs
     id="defs2029" />
  <metadata
     id="metadata2032">
    <rdf:RDF>
      <cc:Work
         rdf:about="">
        <dc:format>image/svg+xml</dc:format>
        <dc:type
           rdf:resource="http://purl.org/dc/dcmitype/StillImage" />
        <dc:title></dc:title>
      </cc:Work>
    </rdf:RDF>
  </metadata>
  <g
     id="layer1">
    <g
       style="display:inline;fill:#000000;fill-opacity:1;stroke:#ffffff;stroke-width:0.18192159;stroke-miterlimit:4;stroke-dasharray:none;stroke-opacity:1"
       transform="matrix(1.0925113,0,0,1.4887871,22.599816,-31.87872)"
       id="g2126">
      <path
         style="fill:#000000;fill-opacity:1;fill-rule:evenodd;stroke:#ffffff;stroke-width:0.18192159;stroke-miterlimit:4;stroke-dasharray:none;stroke-opacity:1"
         d="m 24.261959,102.68651 -6.924376,0.11846 c -1.461267,0 -2.645852,7.53067 -2.645833,16.82015 2.6e-5,9.28929 1.184597,16.81965 2.645833,16.81965 l 7.018257,-0.0728"
         id="path2122" />
      <ellipse
         style="fill:#000000;fill-opacity:1;fill-rule:evenodd;stroke:#ffffff;stroke-width:0.18192159;stroke-miterlimit:4;stroke-dasharray:none;stroke-opacity:1"
         id="ellipse2124"
         cx="24.308374"
         cy="119.5304"
         rx="2.6458333"
         ry="16.819941" />
    </g>
    <g
       id="g2120"
       transform="matrix(1.4785459,0,0,2.0148441,24.417578,-93.397331)"
       style="display:inline;fill:#000000;fill-opacity:1;stroke:#ffffff;stroke-width:0.29256892;stroke-miterlimit:4;stroke-dasharray:none;stroke-opacity:1">
      <path
         id="path2116"
         d="m 24.261959,102.68651 -6.924376,0.11846 c -1.461267,0 -2.645852,7.53067 -2.645833,16.82015 2.6e-5,9.28929 1.184597,16.81965 2.645833,16.81965 l 7.018257,-0.0728"
         style="fill:#000000;fill-opacity:1;fill-rule:evenodd;stroke:#ffffff;stroke-width:0.29256892;stroke-miterlimit:4;stroke-dasharray:none;stroke-opacity:1" />
      <ellipse
         ry="16.819941"
         rx="2.6458333"
         cy="119.5304"
         cx="24.308374"
         id="ellipse2118"
         style="fill:#000000;fill-opacity:1;fill-rule:evenodd;stroke:#ffffff;stroke-width:0.29256892;stroke-miterlimit:4;stroke-dasharray:none;stroke-opacity:1" />
    </g>
    <g
       style="display:inline;fill:#000000;fill-opacity:1;stroke:#ffffff;stroke-width:0.2522105;stroke-miterlimit:4;stroke-dasharray:none;stroke-opacity:1"
       transform="matrix(1.9654587,0,0,2.6783701,27.742373,-175.28012)"
       id="g2114">
      <path
         style="fill:#000000;fill-opacity:1;fill-rule:evenodd;stroke:#ffffff;stroke-width:0.2522105;stroke-miterlimit:4;stroke-dasharray:none;stroke-opacity:1"
         d="m 24.261959,102.68651 -6.924376,0.11846 c -1.461267,0 -2.645852,7.53067 -2.645833,16.82015 2.6e-5,9.28929 1.184597,16.81965 2.645833,16.81965 l 7.018257,-0.0728"
         id="path2110" />
      <ellipse
         style="fill:#000000;fill-opacity:1;fill-rule:evenodd;stroke:#ffffff;stroke-width:0.2522105;stroke-miterlimit:4;stroke-dasharray:none;stroke-opacity:1"
         id="ellipse2112"
         cx="24.308374"
         cy="119.5304"
         rx="2.6458333"
         ry="16.819941" />
    </g>
    <path
       id="path2062"
       d="m 141.93492,135.72603 -65.932063,0.80578 c -1.208847,4.22889 -1.880713,12.00942 0.07667,17.7754 l 65.622943,-1.80704 z"
       style="display:inline;fill:#000000;fill-opacity:1;stroke:#ffffff;stroke-width:0.57866925;stroke-linecap:butt;stroke-linejoin:miter;stroke-miterlimit:4;stroke-dasharray:none;stroke-opacity:1" />
    <g
       id="g2068"
       transform="matrix(1.9654587,0,0,2.6783701,101.64403,-175.98067)"
       style="display:inline;fill:#000000;fill-opacity:1;stroke:#ffffff;stroke-width:0.2522105;stroke-miterlimit:4;stroke-dasharray:none;stroke-opacity:1">
      <path
         id="path2064"
         d="m 24.261959,102.68651 -6.924376,0.11846 c -1.461267,0 -2.645852,7.53067 -2.645833,16.82015 2.6e-5,9.28929 1.184597,16.81965 2.645833,16.81965 l 7.018257,-0.0728"
         style="fill:#000000;fill-opacity:1;fill-rule:evenodd;stroke:#ffffff;stroke-width:0.2522105;stroke-miterlimit:4;stroke-dasharray:none;stroke-opacity:1" />
      <ellipse
         ry="16.819941"
         rx="2.6458333"
         cy="119.5304"
         cx="24.308374"
         id="ellipse2066"
         style="fill:#000000;fill-opacity:1;fill-rule:evenodd;stroke:#ffffff;stroke-width:0.2522105;stroke-miterlimit:4;stroke-dasharray:none;stroke-opacity:1" />
    </g>
    <g
       style="display:inline;fill:#000000;fill-opacity:1;stroke:#ffffff;stroke-width:0.29256892;stroke-miterlimit:4;stroke-dasharray:none;stroke-opacity:1"
       transform="matrix(1.4785459,0,0,2.0148441,126.5118,-96.139235)"
       id="g2084">
      <path
         style="fill:#000000;fill-opacity:1;fill-rule:evenodd;stroke:#ffffff;stroke-width:0.29256892;stroke-miterlimit:4;stroke-dasharray:none;stroke-opacity:1"
         d="m 24.261959,102.68651 -6.924376,0.11846 c -1.461267,0 -2.645852,7.53067 -2.645833,16.82015 2.6e-5,9.28929 1.184597,16.81965 2.645833,16.81965 l 7.018257,-0.0728"
         id="path2080" />
      <ellipse
         style="fill:#000000;fill-opacity:1;fill-rule:evenodd;stroke:#ffffff;stroke-width:0.29256892;stroke-miterlimit:4;stroke-dasharray:none;stroke-opacity:1"
         id="ellipse2082"
         cx="24.308374"
         cy="119.5304"
         rx="2.6458333"
         ry="16.819941" />
    </g>
    <g
       id="g2090"
       transform="matrix(1.0925113,0,0,1.4887871,146.18237,-32.374082)"
       style="display:inline;fill:#000000;fill-opacity:1;stroke:#ffffff;stroke-width:0.60918874;stroke-miterlimit:4;stroke-dasharray:none;stroke-opacity:1">
      <path
         id="path2086"
         d="m 24.261959,102.68651 -6.924376,0.11846 c -1.461267,0 -2.645852,7.53067 -2.645833,16.82015 2.6e-5,9.28929 1.184597,16.81965 2.645833,16.81965 l 7.018257,-0.0728"
         style="fill:#000000;fill-opacity:1;fill-rule:evenodd;stroke:#ffffff;stroke-width:0.60918874;stroke-miterlimit:4;stroke-dasharray:none;stroke-opacity:1" />
      <ellipse
         ry="16.819941"
         rx="2.6458333"
         cy="119.5304"
         cx="24.308374"
         id="ellipse2088"
         style="fill:#000000;fill-opacity:1;fill-rule:evenodd;stroke:#ffffff;stroke-width:0.60918874;stroke-miterlimit:4;stroke-dasharray:none;stroke-opacity:1" />
    </g>
    <path
       style="display:inline;fill:#000000;fill-opacity:1;stroke:#ffffff;stroke-width:0.57866925;stroke-linecap:butt;stroke-linejoin:miter;stroke-miterlimit:4;stroke-dasharray:none;stroke-opacity:1"
       d="m 182.28035,137.25961 -8.14169,-0.59521 c -1.20885,4.2289 -1.88073,12.00944 0.0767,17.77541 l 7.83255,-0.40606 z"
       id="path2076" />
    <ellipse
       style="display:inline;fill:#000000;fill-opacity:1;fill-rule:evenodd;stroke:#ffffff;stroke-width:0.59231716;stroke-miterlimit:4;stroke-dasharray:none;stroke-opacity:1"
       id="ellipse2078"
       cx="181.72997"
       cy="145.50143"
       rx="1.5668726"
       ry="7.7970314" />
  </g>
</svg>
