<?xml version="1.0" encoding="UTF-8" standalone="no"?>
<svg
   xmlns:dc="http://purl.org/dc/elements/1.1/"
   xmlns:cc="http://creativecommons.org/ns#"
   xmlns:rdf="http://www.w3.org/1999/02/22-rdf-syntax-ns#"
   xmlns:svg="http://www.w3.org/2000/svg"
   xmlns="http://www.w3.org/2000/svg"
   xmlns:sodipodi="http://sodipodi.sourceforge.net/DTD/sodipodi-0.dtd"
   xmlns:inkscape="http://www.inkscape.org/namespaces/inkscape"
   id="svg2035"
   version="1.1"
   viewBox="0 0 210 297"
   height="297mm"
   width="210mm"
   sodipodi:docname="weight_grad.svg"
   inkscape:version="0.92.4 (5da689c313, 2019-01-14)">
  <sodipodi:namedview
     pagecolor="#ffffff"
     bordercolor="#666666"
     borderopacity="1"
     objecttolerance="10"
     gridtolerance="10"
     guidetolerance="10"
     inkscape:pageopacity="0"
     inkscape:pageshadow="2"
     inkscape:window-width="1780"
     inkscape:window-height="1051"
     id="namedview27"
     showgrid="false"
     inkscape:zoom="0.5946522"
     inkscape:cx="340.24315"
     inkscape:cy="726.74391"
     inkscape:window-x="-9"
     inkscape:window-y="-9"
     inkscape:window-maximized="1"
     inkscape:current-layer="layer5"
     inkscape:snap-global="false" />
  <defs
     id="defs2029" />
  <metadata
     id="metadata2032">
    <rdf:RDF>
      <cc:Work
         rdf:about="">
        <dc:format>image/svg+xml</dc:format>
        <dc:type
           rdf:resource="http://purl.org/dc/dcmitype/StillImage" />
        <dc:title />
      </cc:Work>
    </rdf:RDF>
  </metadata>
  <g
     inkscape:groupmode="layer"
     id="layer2"
     inkscape:label="bg"
     style="display:inline" />
  <g
     inkscape:groupmode="layer"
     id="layer4"
     inkscape:label="grad"
     style="display:inline" />
  <g
     inkscape:groupmode="layer"
     id="layer3"
     inkscape:label="weights"
     style="display:none"
     sodipodi:insensitive="true">
    <g
       id="g2114"
       transform="matrix(1.9654587,0,0,2.6783701,31.579371,-203.03211)"
       style="display:inline;fill:#000000;fill-opacity:1;stroke:#000000;stroke-width:0.2522105;stroke-miterlimit:4;stroke-dasharray:none;stroke-opacity:1">
      <path
         inkscape:connector-curvature="0"
         id="path2110"
         d="m 24.261959,102.68651 -6.924376,0.11846 c -1.461267,0 -2.645852,7.53067 -2.645833,16.82015 2.6e-5,9.28929 1.184597,16.81965 2.645833,16.81965 l 7.018257,-0.0728"
         style="fill:#000000;fill-opacity:1;fill-rule:evenodd;stroke:#000000;stroke-width:0.2522105;stroke-miterlimit:4;stroke-dasharray:none;stroke-opacity:1" />
      <ellipse
         ry="16.819941"
         rx="2.6458333"
         cy="119.5304"
         cx="24.308374"
         id="ellipse2112"
         style="fill:#000000;fill-opacity:1;fill-rule:evenodd;stroke:#000000;stroke-width:0.2522105;stroke-miterlimit:4;stroke-dasharray:none;stroke-opacity:1" />
    </g>
    <path
       inkscape:connector-curvature="0"
       style="display:inline;fill:#000000;fill-opacity:1;stroke:#000000;stroke-width:0.57866925;stroke-linecap:butt;stroke-linejoin:miter;stroke-miterlimit:4;stroke-dasharray:none;stroke-opacity:1"
       d="m 145.77192,107.97404 -65.932065,0.80578 c -1.208847,4.22889 -1.880713,12.00942 0.07667,17.7754 l 65.622945,-1.80704 z"
       id="path2062" />
    <g
       style="display:inline;fill:#000000;fill-opacity:1;stroke:#000000;stroke-width:0.2522105;stroke-miterlimit:4;stroke-dasharray:none;stroke-opacity:1"
       transform="matrix(1.9654587,0,0,2.6783701,105.48103,-203.73266)"
       id="g2068">
      <path
         inkscape:connector-curvature="0"
         style="fill:#000000;fill-opacity:1;fill-rule:evenodd;stroke:#000000;stroke-width:0.2522105;stroke-miterlimit:4;stroke-dasharray:none;stroke-opacity:1"
         d="m 24.261959,102.68651 -6.924376,0.11846 c -1.461267,0 -2.645852,7.53067 -2.645833,16.82015 2.6e-5,9.28929 1.184597,16.81965 2.645833,16.81965 l 7.018257,-0.0728"
         id="path2064" />
      <ellipse
         style="fill:#000000;fill-opacity:1;fill-rule:evenodd;stroke:#000000;stroke-width:0.2522105;stroke-miterlimit:4;stroke-dasharray:none;stroke-opacity:1"
         id="ellipse2066"
         cx="24.308374"
         cy="119.5304"
         rx="2.6458333"
         ry="16.819941" />
    </g>
    <g
       id="g2084"
       transform="matrix(1.4785459,0,0,2.0148441,130.3488,-123.89123)"
       style="display:inline;fill:#000000;fill-opacity:1;stroke:#000000;stroke-width:0.29256892;stroke-miterlimit:4;stroke-dasharray:none;stroke-opacity:1">
      <path
         inkscape:connector-curvature="0"
         id="path2080"
         d="m 24.261959,102.68651 -6.924376,0.11846 c -1.461267,0 -2.645852,7.53067 -2.645833,16.82015 2.6e-5,9.28929 1.184597,16.81965 2.645833,16.81965 l 7.018257,-0.0728"
         style="fill:#000000;fill-opacity:1;fill-rule:evenodd;stroke:#000000;stroke-width:0.29256892;stroke-miterlimit:4;stroke-dasharray:none;stroke-opacity:1" />
      <ellipse
         ry="16.819941"
         rx="2.6458333"
         cy="119.5304"
         cx="24.308374"
         id="ellipse2082"
         style="fill:#000000;fill-opacity:1;fill-rule:evenodd;stroke:#000000;stroke-width:0.29256892;stroke-miterlimit:4;stroke-dasharray:none;stroke-opacity:1" />
    </g>
    <g
       style="display:inline;fill:#000000;fill-opacity:1;stroke:#000000;stroke-width:0.60918874;stroke-miterlimit:4;stroke-dasharray:none;stroke-opacity:1"
       transform="matrix(1.0925113,0,0,1.4887871,150.01937,-60.126074)"
       id="g2090">
      <path
         inkscape:connector-curvature="0"
         style="fill:#000000;fill-opacity:1;fill-rule:evenodd;stroke:#000000;stroke-width:0.60918874;stroke-miterlimit:4;stroke-dasharray:none;stroke-opacity:1"
         d="m 24.261959,102.68651 -6.924376,0.11846 c -1.461267,0 -2.645852,7.53067 -2.645833,16.82015 2.6e-5,9.28929 1.184597,16.81965 2.645833,16.81965 l 7.018257,-0.0728"
         id="path2086" />
      <ellipse
         style="fill:#000000;fill-opacity:1;fill-rule:evenodd;stroke:#000000;stroke-width:0.60918874;stroke-miterlimit:4;stroke-dasharray:none;stroke-opacity:1"
         id="ellipse2088"
         cx="24.308374"
         cy="119.5304"
         rx="2.6458333"
         ry="16.819941" />
    </g>
    <path
       inkscape:connector-curvature="0"
       id="path2076"
       d="m 186.11735,109.50762 -8.14169,-0.59521 c -1.20885,4.2289 -1.88073,12.00944 0.0767,17.77541 l 7.83255,-0.40606 z"
       style="display:inline;fill:#000000;fill-opacity:1;stroke:#000000;stroke-width:0.57866925;stroke-linecap:butt;stroke-linejoin:miter;stroke-miterlimit:4;stroke-dasharray:none;stroke-opacity:1" />
    <ellipse
       ry="7.7970314"
       rx="1.5668726"
       cy="117.74944"
       cx="185.56696"
       id="ellipse2078"
       style="display:inline;fill:#000000;fill-opacity:1;fill-rule:evenodd;stroke:#000000;stroke-width:0.59231716;stroke-miterlimit:4;stroke-dasharray:none;stroke-opacity:1" />
    <g
       style="display:inline;fill:#bcbcbc;fill-opacity:1;stroke:#000000;stroke-width:1.67565;stroke-miterlimit:4;stroke-dasharray:none;stroke-opacity:1"
       transform="matrix(1.0925113,0,0,1.4887871,32.414568,-59.158784)"
       id="g861">
      <path
         style="fill:#bcbcbc;fill-opacity:1;fill-rule:evenodd;stroke:#000000;stroke-width:1.67565;stroke-miterlimit:4;stroke-dasharray:none;stroke-opacity:1"
         d="m 24.261959,102.68651 -6.924376,0.11846 c -1.461267,0 -4.517706,7.742 -4.517687,17.03148 2.6e-5,9.28929 3.056451,16.60832 4.517687,16.60832 l 7.018257,-0.0728"
         id="path857"
         inkscape:connector-curvature="0"
         sodipodi:nodetypes="ccscc" />
      <ellipse
         style="fill:#bcbcbc;fill-opacity:1;fill-rule:evenodd;stroke:#000000;stroke-width:1.67565;stroke-miterlimit:4;stroke-dasharray:none;stroke-opacity:1"
         id="ellipse859"
         cx="24.308374"
         cy="119.5304"
         rx="2.6458333"
         ry="16.819941" />
    </g>
    <g
       id="g867"
       transform="matrix(1.4785459,0,0,2.0148441,31.108503,-122.5651)"
       style="display:inline;fill:#bcbcbc;fill-opacity:1;stroke:#000000;stroke-width:1.12042379;stroke-miterlimit:4;stroke-dasharray:none;stroke-opacity:1">
      <path
         id="path863"
         d="m 24.261959,102.68651 -6.924376,0.11846 c -1.461267,0 -4.020503,8.20263 -4.020484,17.49211 2.6e-5,9.28929 2.559248,16.14769 4.020484,16.14769 l 7.018257,-0.0728"
         style="fill:#bcbcbc;fill-opacity:1;fill-rule:evenodd;stroke:#000000;stroke-width:1.12042379;stroke-miterlimit:4;stroke-dasharray:none;stroke-opacity:1"
         inkscape:connector-curvature="0"
         sodipodi:nodetypes="ccscc" />
      <ellipse
         ry="16.819941"
         rx="2.6458333"
         cy="119.5304"
         cx="24.308374"
         id="ellipse865"
         style="fill:#bcbcbc;fill-opacity:1;fill-rule:evenodd;stroke:#000000;stroke-width:1.12042379;stroke-miterlimit:4;stroke-dasharray:none;stroke-opacity:1" />
    </g>
    <g
       style="display:inline;fill:#bcbcbc;fill-opacity:1;stroke:#000000;stroke-width:0.94410437;stroke-miterlimit:4;stroke-dasharray:none;stroke-opacity:1"
       transform="matrix(1.9654587,0,0,2.6783701,31.579371,-203.03211)"
       id="g873">
      <path
         style="fill:#bcbcbc;fill-opacity:1;fill-rule:evenodd;stroke:#000000;stroke-width:0.94410437;stroke-miterlimit:4;stroke-dasharray:none;stroke-opacity:1"
         d="m 26.072988,102.68651 -8.735405,0.11846 c -1.461267,0 -4.230503,7.86292 -4.230484,17.1524 2.6e-5,9.28929 2.769248,16.4874 4.230484,16.4874 l 8.699033,-0.0728"
         id="path869"
         inkscape:connector-curvature="0"
         sodipodi:nodetypes="ccscc" />
      <ellipse
         style="fill:#bcbcbc;fill-opacity:1;fill-rule:evenodd;stroke:#000000;stroke-width:1.21616089;stroke-miterlimit:4;stroke-dasharray:none;stroke-opacity:1"
         id="ellipse871"
         cx="26.189243"
         cy="119.5304"
         rx="4.4209094"
         ry="16.70388" />
    </g>
    <path
       id="path875"
       d="m 145.77192,107.97404 -65.932065,0.80578 c -1.208847,4.22889 -1.880713,12.00942 0.07667,17.7754 l 65.622945,-1.80704 z"
       style="display:inline;fill:#f4f4f4;fill-opacity:1;stroke:#000000;stroke-width:2.43072701;stroke-linecap:butt;stroke-linejoin:miter;stroke-miterlimit:4;stroke-dasharray:none;stroke-opacity:1"
       inkscape:connector-curvature="0" />
    <g
       id="g881"
       transform="matrix(1.9654587,0,0,2.6783701,105.48103,-203.73266)"
       style="display:inline;fill:#bcbcbc;fill-opacity:1;stroke:#000000;stroke-width:0.94410437;stroke-miterlimit:4;stroke-dasharray:none;stroke-opacity:1">
      <path
         id="path877"
         d="m 24.261959,102.68651 -6.924376,0.11846 c -1.461267,0 -2.645852,7.53067 -2.645833,16.82015 2.6e-5,9.28929 1.184597,16.81965 2.645833,16.81965 l 7.018257,-0.0728"
         style="fill:#bcbcbc;fill-opacity:1;fill-rule:evenodd;stroke:#000000;stroke-width:0.94410437;stroke-miterlimit:4;stroke-dasharray:none;stroke-opacity:1"
         inkscape:connector-curvature="0" />
      <ellipse
         ry="16.819941"
         rx="2.6458333"
         cy="119.5304"
         cx="24.308374"
         id="ellipse879"
         style="fill:#bcbcbc;fill-opacity:1;fill-rule:evenodd;stroke:#000000;stroke-width:0.94410437;stroke-miterlimit:4;stroke-dasharray:none;stroke-opacity:1" />
    </g>
    <g
       style="display:inline;fill:#bcbcbc;fill-opacity:1;stroke:#000000;stroke-width:1.21239996;stroke-miterlimit:4;stroke-dasharray:none;stroke-opacity:1"
       transform="matrix(1.4785459,0,0,2.0148441,130.3488,-123.89123)"
       id="g887">
      <path
         style="fill:#bcbcbc;fill-opacity:1;fill-rule:evenodd;stroke:#000000;stroke-width:1.21239996;stroke-miterlimit:4;stroke-dasharray:none;stroke-opacity:1"
         d="m 24.261959,102.68651 -6.924376,0.11846 c -1.461267,0 -2.645852,7.53067 -2.645833,16.82015 2.6e-5,9.28929 1.184597,16.81965 2.645833,16.81965 l 7.018257,-0.0728"
         id="path883"
         inkscape:connector-curvature="0" />
      <ellipse
         style="fill:#bcbcbc;fill-opacity:1;fill-rule:evenodd;stroke:#000000;stroke-width:1.21239996;stroke-miterlimit:4;stroke-dasharray:none;stroke-opacity:1"
         id="ellipse885"
         cx="24.308374"
         cy="119.5304"
         rx="2.6458333"
         ry="16.819941" />
    </g>
    <g
       id="g893"
       transform="matrix(1.0925113,0,0,1.4887871,150.01937,-60.126074)"
       style="display:inline;fill:#bcbcbc;fill-opacity:1;stroke:#000000;stroke-width:1.4804306;stroke-miterlimit:4;stroke-dasharray:none;stroke-opacity:1">
      <path
         id="path889"
         d="m 24.261959,102.68651 -6.924376,0.11846 c -1.461267,0 -2.645852,7.53067 -2.645833,16.82015 2.6e-5,9.28929 1.184597,16.81965 2.645833,16.81965 l 7.018257,-0.0728"
         style="fill:#bcbcbc;fill-opacity:1;fill-rule:evenodd;stroke:#000000;stroke-width:1.4804306;stroke-miterlimit:4;stroke-dasharray:none;stroke-opacity:1"
         inkscape:connector-curvature="0" />
      <ellipse
         ry="16.819941"
         rx="2.6458333"
         cy="119.5304"
         cx="24.308374"
         id="ellipse891"
         style="fill:#bcbcbc;fill-opacity:1;fill-rule:evenodd;stroke:#000000;stroke-width:1.4804306;stroke-miterlimit:4;stroke-dasharray:none;stroke-opacity:1" />
    </g>
    <path
       style="display:inline;fill:#ffffff;fill-opacity:1;stroke:#000000;stroke-width:1.84864378;stroke-linecap:butt;stroke-linejoin:miter;stroke-miterlimit:4;stroke-dasharray:none;stroke-opacity:1"
       d="m 186.11735,109.50762 -8.14169,-0.59521 c -1.20885,4.2289 -1.88073,12.00944 0.0767,17.77541 l 7.83255,-0.40606 z"
       id="path895"
       inkscape:connector-curvature="0" />
    <ellipse
       style="display:inline;fill:#ffffff;fill-opacity:1;fill-rule:evenodd;stroke:#000000;stroke-width:2.02115202;stroke-miterlimit:4;stroke-dasharray:none;stroke-opacity:1"
       id="ellipse897"
       cx="185.56696"
       cy="117.74944"
       rx="1.5668726"
       ry="7.7970314" />
  </g>
  <g
     inkscape:groupmode="layer"
     id="layer1"
     inkscape:label="weights 2"
     style="display:none;opacity:0.50499998">
    <rect
       transform="scale(-1,1)"
       style="fill:#e4e4ff;fill-opacity:1;fill-rule:evenodd;stroke:#000000;stroke-width:2.38950515;stroke-miterlimit:4;stroke-dasharray:none;stroke-opacity:1"
       id="rect918"
       width="121.90216"
       height="10.527146"
       x="-168.83443"
       y="141.2885" />
    <rect
       style="fill:#e4e4ff;fill-opacity:1;fill-rule:evenodd;stroke:#000000;stroke-width:1.90499997;stroke-miterlimit:4;stroke-dasharray:none;stroke-opacity:1"
       id="rect906"
       width="12.584745"
       height="64.81144"
       x="129.74936"
       y="115.24753" />
    <rect
       y="122.79838"
       x="143.27797"
       height="49.080505"
       width="10.697036"
       id="rect908"
       style="fill:#e4e4ff;fill-opacity:1;fill-rule:evenodd;stroke:#000000;stroke-width:1.90499997;stroke-miterlimit:4;stroke-dasharray:none;stroke-opacity:1" />
    <rect
       style="fill:#e4e4ff;fill-opacity:1;fill-rule:evenodd;stroke:#000000;stroke-width:1.4428643;stroke-miterlimit:4;stroke-dasharray:none;stroke-opacity:1"
       id="rect910"
       width="8.0129843"
       height="37.587132"
       x="155.00241"
       y="128.23044" />
    <rect
       y="115.87676"
       x="-86.017387"
       height="64.81144"
       width="12.584745"
       id="rect912"
       style="fill:#e4e4ff;fill-opacity:1;fill-rule:evenodd;stroke:#000000;stroke-width:1.90499997;stroke-miterlimit:4;stroke-dasharray:none;stroke-opacity:1"
       transform="scale(-1,1)" />
    <rect
       style="fill:#e4e4ff;fill-opacity:1;fill-rule:evenodd;stroke:#000000;stroke-width:1.90499997;stroke-miterlimit:4;stroke-dasharray:none;stroke-opacity:1"
       id="rect914"
       width="10.697036"
       height="49.080505"
       x="-72.488777"
       y="123.42761"
       transform="scale(-1,1)" />
    <rect
       y="128.85968"
       x="-60.764332"
       height="37.587132"
       width="8.0129843"
       id="rect916"
       style="fill:#e4e4ff;fill-opacity:1;fill-rule:evenodd;stroke:#000000;stroke-width:1.4428643;stroke-miterlimit:4;stroke-dasharray:none;stroke-opacity:1"
       transform="scale(-1,1)" />
  </g>
  <g
     inkscape:groupmode="layer"
     id="layer5"
     inkscape:label="weights rounded">
    <path
       sodipodi:nodetypes="ccccc"
       inkscape:connector-curvature="0"
       id="path959"
       d="m 184.28931,150.95374 c 2.12618,3.73906 1.69021,8.7052 0,12.58474 l -143.422523,0 c -2.346859,-4.35592 -1.679689,-8.48063 0,-12.58474 z"
       style="opacity:1;fill:#e4e4ff;fill-opacity:1;fill-rule:evenodd;stroke:#000000;stroke-width:1.90499997;stroke-miterlimit:4;stroke-dasharray:none;stroke-opacity:1" />
    <path
       style="opacity:1;fill:#e4e4ff;fill-opacity:1;fill-rule:evenodd;stroke:#000000;stroke-width:1.90499997;stroke-miterlimit:4;stroke-dasharray:none;stroke-opacity:1"
       d="m 141.89301,128.04979 c 3.2806,-3.13478 6.44936,-6.65304 12.58474,0 v 64.81144 c -4.57879,4.79845 -8.84371,5.67352 -12.58474,0 z"
       id="rect940"
       inkscape:connector-curvature="0"
       sodipodi:nodetypes="ccccc" />
    <path
       sodipodi:nodetypes="ccccc"
       inkscape:connector-curvature="0"
       id="path961"
       d="m 155.63215,132.93126 c 3.17083,-2.57262 6.23357,-5.45995 12.16366,0 v 53.18879 c -4.42559,3.93796 -8.54781,4.6561 -12.16366,0 z"
       style="opacity:1;fill:#e4e4ff;fill-opacity:1;fill-rule:evenodd;stroke:#000000;stroke-width:1.69663846;stroke-miterlimit:4;stroke-dasharray:none;stroke-opacity:1" />
    <path
       style="opacity:1;fill:#e4e4ff;fill-opacity:1;fill-rule:evenodd;stroke:#000000;stroke-width:1.32768714;stroke-miterlimit:4;stroke-dasharray:none;stroke-opacity:1"
       d="m 169.32908,138.47958 c 2.46505,-2.02644 4.84607,-4.30079 9.45621,0 v 41.89674 c -3.44052,3.10192 -6.6452,3.6676 -9.45621,0 z"
       id="path963"
       inkscape:connector-curvature="0"
       sodipodi:nodetypes="ccccc" />
    <path
       sodipodi:nodetypes="ccccc"
       inkscape:connector-curvature="0"
       id="path965"
       d="m 85.890772,125.53284 c -3.2806,-3.13478 -6.44936,-6.65304 -12.58474,0 v 64.81144 c 4.57879,4.79845 8.84371,5.67352 12.58474,0 z"
       style="opacity:1;fill:#e4e4ff;fill-opacity:1;fill-rule:evenodd;stroke:#000000;stroke-width:1.90499997;stroke-miterlimit:4;stroke-dasharray:none;stroke-opacity:1" />
    <path
       style="opacity:1;fill:#e4e4ff;fill-opacity:1;fill-rule:evenodd;stroke:#000000;stroke-width:1.69663846;stroke-miterlimit:4;stroke-dasharray:none;stroke-opacity:1"
       d="m 71.837012,131.35817 c -3.17083,-2.57262 -6.23357,-5.45995 -12.16366,0 v 53.18879 c 4.42559,3.93796 8.54781,4.6561 12.16366,0 z"
       id="path967"
       inkscape:connector-curvature="0"
       sodipodi:nodetypes="ccccc" />
    <path
       sodipodi:nodetypes="ccccc"
       inkscape:connector-curvature="0"
       id="path969"
       d="m 58.564795,136.13907 c -2.512494,-2.11124 -4.939343,-4.48076 -9.638224,0 v 43.64987 c 3.506748,3.23171 6.773108,3.82106 9.638224,0 z"
       style="opacity:1;fill:#e4e4ff;fill-opacity:1;fill-rule:evenodd;stroke:#000000;stroke-width:1.36816049;stroke-miterlimit:4;stroke-dasharray:none;stroke-opacity:1" />
  </g>
</svg>
